M48
; DRILL file {KiCad 5.1.7-a382d34a8~87~ubuntu20.04.1} date Fri Nov  6 02:00:50 2020
; FORMAT={-:-/ absolute / inch / decimal}
; #@! TF.CreationDate,2020-11-06T02:00:50-03:00
; #@! TF.GenerationSoftware,Kicad,Pcbnew,5.1.7-a382d34a8~87~ubuntu20.04.1
; #@! TF.FileFunction,Plated,1,2,PTH
FMAT,2
INCH
T1C0.0315
T2C0.0394
T3C0.0400
%
G90
G05
T1
X3.96Y-3.975
X4.415Y-4.025
T2
X4.18Y-4.295
X4.28Y-4.295
X4.38Y-4.295
X4.48Y-4.295
X3.78Y-3.635
X3.78Y-3.735
X3.88Y-3.635
X3.88Y-3.735
X3.98Y-3.635
X3.98Y-3.735
X4.08Y-3.635
X4.08Y-3.735
X4.18Y-3.635
X4.18Y-3.735
X4.28Y-3.635
X4.28Y-3.735
X4.38Y-3.635
X4.38Y-3.735
X4.48Y-3.635
X4.48Y-3.735
T3
X3.8048Y-4.121
X3.8048Y-4.299
X4.0608Y-4.121
X4.0608Y-4.299
T0
M30
