%TF.GenerationSoftware,KiCad,Pcbnew,5.1.7-a382d34a8~87~ubuntu20.04.1*%
%TF.CreationDate,2020-11-06T02:00:15-03:00*%
%TF.ProjectId,RPI_HAT,5250495f-4841-4542-9e6b-696361645f70,v1 *%
%TF.SameCoordinates,Original*%
%TF.FileFunction,Copper,L1,Top*%
%TF.FilePolarity,Positive*%
%FSLAX46Y46*%
G04 Gerber Fmt 4.6, Leading zero omitted, Abs format (unit mm)*
G04 Created by KiCad (PCBNEW 5.1.7-a382d34a8~87~ubuntu20.04.1) date 2020-11-06 02:00:15*
%MOMM*%
%LPD*%
G01*
G04 APERTURE LIST*
%TA.AperFunction,ComponentPad*%
%ADD10R,1.700000X1.700000*%
%TD*%
%TA.AperFunction,ComponentPad*%
%ADD11O,1.700000X1.700000*%
%TD*%
%TA.AperFunction,ComponentPad*%
%ADD12O,1.524000X1.524000*%
%TD*%
%TA.AperFunction,ViaPad*%
%ADD13C,1.000000*%
%TD*%
%TA.AperFunction,Conductor*%
%ADD14C,0.300000*%
%TD*%
%TA.AperFunction,Conductor*%
%ADD15C,0.250000*%
%TD*%
G04 APERTURE END LIST*
D10*
%TO.P,J1,1*%
%TO.N,/3V3*%
X96012000Y-94869000D03*
D11*
%TO.P,J1,2*%
%TO.N,Net-(J1-Pad2)*%
X96012000Y-92329000D03*
%TO.P,J1,3*%
%TO.N,Net-(J1-Pad3)*%
X98552000Y-94869000D03*
%TO.P,J1,4*%
%TO.N,Net-(J1-Pad4)*%
X98552000Y-92329000D03*
%TO.P,J1,5*%
%TO.N,Net-(J1-Pad5)*%
X101092000Y-94869000D03*
%TO.P,J1,6*%
%TO.N,GND*%
X101092000Y-92329000D03*
%TO.P,J1,7*%
%TO.N,Net-(J1-Pad7)*%
X103632000Y-94869000D03*
%TO.P,J1,8*%
%TO.N,/button_input*%
X103632000Y-92329000D03*
%TO.P,J1,9*%
%TO.N,GND*%
X106172000Y-94869000D03*
%TO.P,J1,10*%
%TO.N,Net-(J1-Pad10)*%
X106172000Y-92329000D03*
%TO.P,J1,11*%
%TO.N,Net-(J1-Pad11)*%
X108712000Y-94869000D03*
%TO.P,J1,12*%
%TO.N,Net-(J1-Pad12)*%
X108712000Y-92329000D03*
%TO.P,J1,13*%
%TO.N,Net-(J1-Pad13)*%
X111252000Y-94869000D03*
%TO.P,J1,14*%
%TO.N,Net-(J1-Pad14)*%
X111252000Y-92329000D03*
%TO.P,J1,15*%
%TO.N,Net-(J1-Pad15)*%
X113792000Y-94869000D03*
%TO.P,J1,16*%
%TO.N,Net-(J1-Pad16)*%
X113792000Y-92329000D03*
%TD*%
%TO.P,R1,1*%
%TO.N,/button_input*%
%TA.AperFunction,SMDPad,CuDef*%
G36*
G01*
X95880500Y-100780001D02*
X95880500Y-99879999D01*
G75*
G02*
X96130499Y-99630000I249999J0D01*
G01*
X96655501Y-99630000D01*
G75*
G02*
X96905500Y-99879999I0J-249999D01*
G01*
X96905500Y-100780001D01*
G75*
G02*
X96655501Y-101030000I-249999J0D01*
G01*
X96130499Y-101030000D01*
G75*
G02*
X95880500Y-100780001I0J249999D01*
G01*
G37*
%TD.AperFunction*%
%TO.P,R1,2*%
%TO.N,GND*%
%TA.AperFunction,SMDPad,CuDef*%
G36*
G01*
X97705500Y-100780001D02*
X97705500Y-99879999D01*
G75*
G02*
X97955499Y-99630000I249999J0D01*
G01*
X98480501Y-99630000D01*
G75*
G02*
X98730500Y-99879999I0J-249999D01*
G01*
X98730500Y-100780001D01*
G75*
G02*
X98480501Y-101030000I-249999J0D01*
G01*
X97955499Y-101030000D01*
G75*
G02*
X97705500Y-100780001I0J249999D01*
G01*
G37*
%TD.AperFunction*%
%TD*%
%TO.P,R2,2*%
%TO.N,/3V3*%
%TA.AperFunction,SMDPad,CuDef*%
G36*
G01*
X103611000Y-100780001D02*
X103611000Y-99879999D01*
G75*
G02*
X103860999Y-99630000I249999J0D01*
G01*
X104386001Y-99630000D01*
G75*
G02*
X104636000Y-99879999I0J-249999D01*
G01*
X104636000Y-100780001D01*
G75*
G02*
X104386001Y-101030000I-249999J0D01*
G01*
X103860999Y-101030000D01*
G75*
G02*
X103611000Y-100780001I0J249999D01*
G01*
G37*
%TD.AperFunction*%
%TO.P,R2,1*%
%TO.N,Net-(J1-Pad11)*%
%TA.AperFunction,SMDPad,CuDef*%
G36*
G01*
X101786000Y-100780001D02*
X101786000Y-99879999D01*
G75*
G02*
X102035999Y-99630000I249999J0D01*
G01*
X102561001Y-99630000D01*
G75*
G02*
X102811000Y-99879999I0J-249999D01*
G01*
X102811000Y-100780001D01*
G75*
G02*
X102561001Y-101030000I-249999J0D01*
G01*
X102035999Y-101030000D01*
G75*
G02*
X101786000Y-100780001I0J249999D01*
G01*
G37*
%TD.AperFunction*%
%TD*%
%TO.P,R3,1*%
%TO.N,Net-(J1-Pad7)*%
%TA.AperFunction,SMDPad,CuDef*%
G36*
G01*
X107691500Y-105352001D02*
X107691500Y-104451999D01*
G75*
G02*
X107941499Y-104202000I249999J0D01*
G01*
X108466501Y-104202000D01*
G75*
G02*
X108716500Y-104451999I0J-249999D01*
G01*
X108716500Y-105352001D01*
G75*
G02*
X108466501Y-105602000I-249999J0D01*
G01*
X107941499Y-105602000D01*
G75*
G02*
X107691500Y-105352001I0J249999D01*
G01*
G37*
%TD.AperFunction*%
%TO.P,R3,2*%
%TO.N,Net-(D1-Pad2)*%
%TA.AperFunction,SMDPad,CuDef*%
G36*
G01*
X109516500Y-105352001D02*
X109516500Y-104451999D01*
G75*
G02*
X109766499Y-104202000I249999J0D01*
G01*
X110291501Y-104202000D01*
G75*
G02*
X110541500Y-104451999I0J-249999D01*
G01*
X110541500Y-105352001D01*
G75*
G02*
X110291501Y-105602000I-249999J0D01*
G01*
X109766499Y-105602000D01*
G75*
G02*
X109516500Y-105352001I0J249999D01*
G01*
G37*
%TD.AperFunction*%
%TD*%
%TO.P,R4,2*%
%TO.N,Net-(D2-Pad2)*%
%TA.AperFunction,SMDPad,CuDef*%
G36*
G01*
X109516500Y-100780001D02*
X109516500Y-99879999D01*
G75*
G02*
X109766499Y-99630000I249999J0D01*
G01*
X110291501Y-99630000D01*
G75*
G02*
X110541500Y-99879999I0J-249999D01*
G01*
X110541500Y-100780001D01*
G75*
G02*
X110291501Y-101030000I-249999J0D01*
G01*
X109766499Y-101030000D01*
G75*
G02*
X109516500Y-100780001I0J249999D01*
G01*
G37*
%TD.AperFunction*%
%TO.P,R4,1*%
%TO.N,/3V3*%
%TA.AperFunction,SMDPad,CuDef*%
G36*
G01*
X107691500Y-100780001D02*
X107691500Y-99879999D01*
G75*
G02*
X107941499Y-99630000I249999J0D01*
G01*
X108466501Y-99630000D01*
G75*
G02*
X108716500Y-99879999I0J-249999D01*
G01*
X108716500Y-100780001D01*
G75*
G02*
X108466501Y-101030000I-249999J0D01*
G01*
X107941499Y-101030000D01*
G75*
G02*
X107691500Y-100780001I0J249999D01*
G01*
G37*
%TD.AperFunction*%
%TD*%
D12*
%TO.P,SW1,1*%
%TO.N,/3V3*%
X103144900Y-109194600D03*
X96642500Y-109194600D03*
%TO.P,SW1,2*%
%TO.N,/button_input*%
X103144900Y-104673400D03*
X96642500Y-104673400D03*
%TD*%
D10*
%TO.P,U1,1*%
%TO.N,/3V3*%
X113792000Y-109093000D03*
D11*
%TO.P,U1,2*%
%TO.N,Net-(J1-Pad11)*%
X111252000Y-109093000D03*
%TO.P,U1,3*%
%TO.N,Net-(U1-Pad3)*%
X108712000Y-109093000D03*
%TO.P,U1,4*%
%TO.N,GND*%
X106172000Y-109093000D03*
%TD*%
%TO.P,D1,1*%
%TO.N,GND*%
%TA.AperFunction,SMDPad,CuDef*%
G36*
G01*
X112827500Y-105313250D02*
X112827500Y-104400750D01*
G75*
G02*
X113071250Y-104157000I243750J0D01*
G01*
X113558750Y-104157000D01*
G75*
G02*
X113802500Y-104400750I0J-243750D01*
G01*
X113802500Y-105313250D01*
G75*
G02*
X113558750Y-105557000I-243750J0D01*
G01*
X113071250Y-105557000D01*
G75*
G02*
X112827500Y-105313250I0J243750D01*
G01*
G37*
%TD.AperFunction*%
%TO.P,D1,2*%
%TO.N,Net-(D1-Pad2)*%
%TA.AperFunction,SMDPad,CuDef*%
G36*
G01*
X114702500Y-105313250D02*
X114702500Y-104400750D01*
G75*
G02*
X114946250Y-104157000I243750J0D01*
G01*
X115433750Y-104157000D01*
G75*
G02*
X115677500Y-104400750I0J-243750D01*
G01*
X115677500Y-105313250D01*
G75*
G02*
X115433750Y-105557000I-243750J0D01*
G01*
X114946250Y-105557000D01*
G75*
G02*
X114702500Y-105313250I0J243750D01*
G01*
G37*
%TD.AperFunction*%
%TD*%
%TO.P,D2,2*%
%TO.N,Net-(D2-Pad2)*%
%TA.AperFunction,SMDPad,CuDef*%
G36*
G01*
X114702500Y-100532250D02*
X114702500Y-99619750D01*
G75*
G02*
X114946250Y-99376000I243750J0D01*
G01*
X115433750Y-99376000D01*
G75*
G02*
X115677500Y-99619750I0J-243750D01*
G01*
X115677500Y-100532250D01*
G75*
G02*
X115433750Y-100776000I-243750J0D01*
G01*
X114946250Y-100776000D01*
G75*
G02*
X114702500Y-100532250I0J243750D01*
G01*
G37*
%TD.AperFunction*%
%TO.P,D2,1*%
%TO.N,GND*%
%TA.AperFunction,SMDPad,CuDef*%
G36*
G01*
X112827500Y-100532250D02*
X112827500Y-99619750D01*
G75*
G02*
X113071250Y-99376000I243750J0D01*
G01*
X113558750Y-99376000D01*
G75*
G02*
X113802500Y-99619750I0J-243750D01*
G01*
X113802500Y-100532250D01*
G75*
G02*
X113558750Y-100776000I-243750J0D01*
G01*
X113071250Y-100776000D01*
G75*
G02*
X112827500Y-100532250I0J243750D01*
G01*
G37*
%TD.AperFunction*%
%TD*%
D13*
%TO.N,GND*%
X112141000Y-102235000D03*
X100584000Y-100965000D03*
%TD*%
D14*
%TO.N,GND*%
X106172000Y-109093000D02*
X106172000Y-108712000D01*
X106172000Y-108712000D02*
X104394000Y-106934000D01*
X104394000Y-106934000D02*
X104394000Y-104140000D01*
X104394000Y-104140000D02*
X103251000Y-102997000D01*
X103251000Y-102997000D02*
X100885000Y-102997000D01*
X99972500Y-102084500D02*
X99972500Y-101576500D01*
X100885000Y-102997000D02*
X99972500Y-102084500D01*
X99972500Y-102084500D02*
X98218000Y-100330000D01*
X99972500Y-101576500D02*
X100584000Y-100965000D01*
X112268000Y-102108000D02*
X112141000Y-102235000D01*
X113284000Y-102235000D02*
X113315000Y-102204000D01*
X112141000Y-102235000D02*
X113284000Y-102235000D01*
X113315000Y-102204000D02*
X113315000Y-104648000D01*
X113315000Y-100076000D02*
X113315000Y-102204000D01*
D15*
%TO.N,Net-(D1-Pad2)*%
X110029000Y-104902000D02*
X111125000Y-104902000D01*
X111125000Y-104902000D02*
X112522000Y-106299000D01*
X112522000Y-106299000D02*
X114173000Y-106299000D01*
X114840000Y-105632000D02*
X114840000Y-104648000D01*
X114173000Y-106299000D02*
X114840000Y-105632000D01*
%TO.N,Net-(D2-Pad2)*%
X110029000Y-100330000D02*
X110029000Y-100283000D01*
X110029000Y-100283000D02*
X111633000Y-98679000D01*
X111633000Y-98679000D02*
X114173000Y-98679000D01*
X114840000Y-99346000D02*
X114840000Y-100076000D01*
X114173000Y-98679000D02*
X114840000Y-99346000D01*
D14*
%TO.N,/3V3*%
X96012000Y-94869000D02*
X95758000Y-94869000D01*
D15*
X96642500Y-109194600D02*
X96240600Y-109194600D01*
D14*
X96642500Y-109194600D02*
X96494600Y-109194600D01*
X96494600Y-109194600D02*
X94869000Y-107569000D01*
X94869000Y-96012000D02*
X96012000Y-94869000D01*
X94869000Y-107569000D02*
X94869000Y-96012000D01*
X96642500Y-109194600D02*
X103144900Y-109194600D01*
X113792000Y-109093000D02*
X113665000Y-109093000D01*
X113665000Y-109093000D02*
X111379000Y-111379000D01*
X105329300Y-111379000D02*
X103144900Y-109194600D01*
X111379000Y-111379000D02*
X105329300Y-111379000D01*
X104123500Y-100330000D02*
X108204000Y-100330000D01*
X113792000Y-109093000D02*
X113792000Y-108331000D01*
X113792000Y-108331000D02*
X112395000Y-106934000D01*
X112395000Y-106934000D02*
X107442000Y-106934000D01*
X107442000Y-106934000D02*
X105918000Y-105410000D01*
X105918000Y-102124500D02*
X104123500Y-100330000D01*
X105918000Y-105410000D02*
X105918000Y-102124500D01*
D15*
%TO.N,Net-(J1-Pad7)*%
X108204000Y-104902000D02*
X108204000Y-102489000D01*
X108204000Y-102489000D02*
X109141510Y-101551490D01*
X109141510Y-101551490D02*
X109141510Y-99235510D01*
X109141510Y-99235510D02*
X107569000Y-97663000D01*
X106426000Y-97663000D02*
X103632000Y-94869000D01*
X107569000Y-97663000D02*
X106426000Y-97663000D01*
%TO.N,/button_input*%
X103144900Y-104673400D02*
X96642500Y-104673400D01*
X96642500Y-100579500D02*
X96393000Y-100330000D01*
X96642500Y-104673400D02*
X96642500Y-100579500D01*
X96393000Y-100330000D02*
X96393000Y-99441000D01*
X96393000Y-99441000D02*
X99822000Y-96012000D01*
X99822000Y-96012000D02*
X99822000Y-94234000D01*
X99822000Y-94234000D02*
X100362001Y-93693999D01*
X102267001Y-93693999D02*
X103632000Y-92329000D01*
X100362001Y-93693999D02*
X102267001Y-93693999D01*
%TO.N,Net-(J1-Pad11)*%
X102298500Y-100330000D02*
X102298500Y-94424500D01*
X102298500Y-94424500D02*
X103129001Y-93593999D01*
X107436999Y-93593999D02*
X108712000Y-94869000D01*
X103129001Y-93593999D02*
X107436999Y-93593999D01*
X111252000Y-109093000D02*
X110998000Y-109093000D01*
X110998000Y-109093000D02*
X109601000Y-107696000D01*
X109601000Y-107696000D02*
X106934000Y-107696000D01*
X106934000Y-107696000D02*
X105156000Y-105918000D01*
X105156000Y-103187500D02*
X102298500Y-100330000D01*
X105156000Y-105918000D02*
X105156000Y-103187500D01*
%TD*%
M02*
