%TF.GenerationSoftware,KiCad,Pcbnew,5.1.7-a382d34a8~87~ubuntu20.04.1*%
%TF.CreationDate,2020-11-06T02:00:15-03:00*%
%TF.ProjectId,RPI_HAT,5250495f-4841-4542-9e6b-696361645f70,v1 *%
%TF.SameCoordinates,Original*%
%TF.FileFunction,Legend,Top*%
%TF.FilePolarity,Positive*%
%FSLAX46Y46*%
G04 Gerber Fmt 4.6, Leading zero omitted, Abs format (unit mm)*
G04 Created by KiCad (PCBNEW 5.1.7-a382d34a8~87~ubuntu20.04.1) date 2020-11-06 02:00:15*
%MOMM*%
%LPD*%
G01*
G04 APERTURE LIST*
%ADD10C,0.150000*%
%ADD11C,0.100000*%
%ADD12C,0.120000*%
%ADD13C,0.203200*%
G04 APERTURE END LIST*
D10*
X113393666Y-107058666D02*
X113827000Y-107058666D01*
X113593666Y-107325333D01*
X113693666Y-107325333D01*
X113760333Y-107358666D01*
X113793666Y-107392000D01*
X113827000Y-107458666D01*
X113827000Y-107625333D01*
X113793666Y-107692000D01*
X113760333Y-107725333D01*
X113693666Y-107758666D01*
X113493666Y-107758666D01*
X113427000Y-107725333D01*
X113393666Y-107692000D01*
X114127000Y-107692000D02*
X114160333Y-107725333D01*
X114127000Y-107758666D01*
X114093666Y-107725333D01*
X114127000Y-107692000D01*
X114127000Y-107758666D01*
X114393666Y-107058666D02*
X114827000Y-107058666D01*
X114593666Y-107325333D01*
X114693666Y-107325333D01*
X114760333Y-107358666D01*
X114793666Y-107392000D01*
X114827000Y-107458666D01*
X114827000Y-107625333D01*
X114793666Y-107692000D01*
X114760333Y-107725333D01*
X114693666Y-107758666D01*
X114493666Y-107758666D01*
X114427000Y-107725333D01*
X114393666Y-107692000D01*
X115027000Y-107058666D02*
X115260333Y-107758666D01*
X115493666Y-107058666D01*
X110075000Y-107758666D02*
X110075000Y-107058666D01*
X110241666Y-107058666D01*
X110341666Y-107092000D01*
X110408333Y-107158666D01*
X110441666Y-107225333D01*
X110475000Y-107358666D01*
X110475000Y-107458666D01*
X110441666Y-107592000D01*
X110408333Y-107658666D01*
X110341666Y-107725333D01*
X110241666Y-107758666D01*
X110075000Y-107758666D01*
X110741666Y-107558666D02*
X111075000Y-107558666D01*
X110675000Y-107758666D02*
X110908333Y-107058666D01*
X111141666Y-107758666D01*
X111275000Y-107058666D02*
X111675000Y-107058666D01*
X111475000Y-107758666D02*
X111475000Y-107058666D01*
X111875000Y-107558666D02*
X112208333Y-107558666D01*
X111808333Y-107758666D02*
X112041666Y-107058666D01*
X112275000Y-107758666D01*
X104368666Y-106838000D02*
X104302000Y-106804666D01*
X104202000Y-106804666D01*
X104102000Y-106838000D01*
X104035333Y-106904666D01*
X104002000Y-106971333D01*
X103968666Y-107104666D01*
X103968666Y-107204666D01*
X104002000Y-107338000D01*
X104035333Y-107404666D01*
X104102000Y-107471333D01*
X104202000Y-107504666D01*
X104268666Y-107504666D01*
X104368666Y-107471333D01*
X104402000Y-107438000D01*
X104402000Y-107204666D01*
X104268666Y-107204666D01*
X104702000Y-107504666D02*
X104702000Y-106804666D01*
X105102000Y-107504666D01*
X105102000Y-106804666D01*
X105435333Y-107504666D02*
X105435333Y-106804666D01*
X105602000Y-106804666D01*
X105702000Y-106838000D01*
X105768666Y-106904666D01*
X105802000Y-106971333D01*
X105835333Y-107104666D01*
X105835333Y-107204666D01*
X105802000Y-107338000D01*
X105768666Y-107404666D01*
X105702000Y-107471333D01*
X105602000Y-107504666D01*
X105435333Y-107504666D01*
D11*
X115284333Y-99040904D02*
X115284333Y-98240904D01*
X115474809Y-98240904D01*
X115522428Y-98279000D01*
X115546238Y-98317095D01*
X115570047Y-98393285D01*
X115570047Y-98507571D01*
X115546238Y-98583761D01*
X115522428Y-98621857D01*
X115474809Y-98659952D01*
X115284333Y-98659952D01*
X115736714Y-98240904D02*
X115855761Y-99040904D01*
X115951000Y-98469476D01*
X116046238Y-99040904D01*
X116165285Y-98240904D01*
X116641476Y-99040904D02*
X116474809Y-98659952D01*
X116355761Y-99040904D02*
X116355761Y-98240904D01*
X116546238Y-98240904D01*
X116593857Y-98279000D01*
X116617666Y-98317095D01*
X116641476Y-98393285D01*
X116641476Y-98507571D01*
X116617666Y-98583761D01*
X116593857Y-98621857D01*
X116546238Y-98659952D01*
X116355761Y-98659952D01*
D10*
X112379095Y-104925761D02*
X112283857Y-104973380D01*
X112093380Y-104973380D01*
X111998142Y-104925761D01*
X111950523Y-104878142D01*
X111902904Y-104782904D01*
X111902904Y-104497190D01*
X111950523Y-104401952D01*
X111998142Y-104354333D01*
X112093380Y-104306714D01*
X112283857Y-104306714D01*
X112379095Y-104354333D01*
X112379095Y-100353761D02*
X112283857Y-100401380D01*
X112093380Y-100401380D01*
X111998142Y-100353761D01*
X111950523Y-100306142D01*
X111902904Y-100210904D01*
X111902904Y-99925190D01*
X111950523Y-99829952D01*
X111998142Y-99782333D01*
X112093380Y-99734714D01*
X112283857Y-99734714D01*
X112379095Y-99782333D01*
D12*
%TO.C,J1*%
X115122000Y-96199000D02*
X115122000Y-90999000D01*
X97282000Y-96199000D02*
X115122000Y-96199000D01*
X94682000Y-90999000D02*
X115122000Y-90999000D01*
X97282000Y-96199000D02*
X97282000Y-93599000D01*
X97282000Y-93599000D02*
X94682000Y-93599000D01*
X94682000Y-93599000D02*
X94682000Y-90999000D01*
X96012000Y-96199000D02*
X94682000Y-96199000D01*
X94682000Y-96199000D02*
X94682000Y-94869000D01*
%TO.C,R1*%
X97078436Y-99595000D02*
X97532564Y-99595000D01*
X97078436Y-101065000D02*
X97532564Y-101065000D01*
%TO.C,R2*%
X102983936Y-101065000D02*
X103438064Y-101065000D01*
X102983936Y-99595000D02*
X103438064Y-99595000D01*
%TO.C,R3*%
X108889436Y-104167000D02*
X109343564Y-104167000D01*
X108889436Y-105637000D02*
X109343564Y-105637000D01*
%TO.C,R4*%
X108889436Y-101065000D02*
X109343564Y-101065000D01*
X108889436Y-99595000D02*
X109343564Y-99595000D01*
D13*
%TO.C,SW1*%
X97734700Y-109982000D02*
X102052700Y-109982000D01*
X102052700Y-103886000D02*
X97734700Y-103886000D01*
X96845700Y-107929680D02*
X96845700Y-105918000D01*
X102941700Y-107960160D02*
X102941700Y-105918000D01*
X101671700Y-106934000D02*
G75*
G03*
X101671700Y-106934000I-1778000J0D01*
G01*
D12*
%TO.C,U1*%
X104842000Y-107763000D02*
X104842000Y-110423000D01*
X112522000Y-107763000D02*
X104842000Y-107763000D01*
X112522000Y-110423000D02*
X104842000Y-110423000D01*
X112522000Y-107763000D02*
X112522000Y-110423000D01*
X113792000Y-107763000D02*
X115122000Y-107763000D01*
X115122000Y-107763000D02*
X115122000Y-109093000D01*
%TO.C,D1*%
X115252500Y-103897000D02*
X112567500Y-103897000D01*
X112567500Y-103897000D02*
X112567500Y-105817000D01*
X112567500Y-105817000D02*
X115252500Y-105817000D01*
%TO.C,D2*%
X112567500Y-101036000D02*
X115252500Y-101036000D01*
X112567500Y-99116000D02*
X112567500Y-101036000D01*
X115252500Y-99116000D02*
X112567500Y-99116000D01*
%TO.C,*%
D10*
D11*
X95939285Y-102951000D02*
X95882142Y-102922428D01*
X95796428Y-102922428D01*
X95710714Y-102951000D01*
X95653571Y-103008142D01*
X95625000Y-103065285D01*
X95596428Y-103179571D01*
X95596428Y-103265285D01*
X95625000Y-103379571D01*
X95653571Y-103436714D01*
X95710714Y-103493857D01*
X95796428Y-103522428D01*
X95853571Y-103522428D01*
X95939285Y-103493857D01*
X95967857Y-103465285D01*
X95967857Y-103265285D01*
X95853571Y-103265285D01*
X96225000Y-103522428D02*
X96225000Y-102922428D01*
X96453571Y-102922428D01*
X96510714Y-102951000D01*
X96539285Y-102979571D01*
X96567857Y-103036714D01*
X96567857Y-103122428D01*
X96539285Y-103179571D01*
X96510714Y-103208142D01*
X96453571Y-103236714D01*
X96225000Y-103236714D01*
X96825000Y-103522428D02*
X96825000Y-102922428D01*
X97225000Y-102922428D02*
X97339285Y-102922428D01*
X97396428Y-102951000D01*
X97453571Y-103008142D01*
X97482142Y-103122428D01*
X97482142Y-103322428D01*
X97453571Y-103436714D01*
X97396428Y-103493857D01*
X97339285Y-103522428D01*
X97225000Y-103522428D01*
X97167857Y-103493857D01*
X97110714Y-103436714D01*
X97082142Y-103322428D01*
X97082142Y-103122428D01*
X97110714Y-103008142D01*
X97167857Y-102951000D01*
X97225000Y-102922428D01*
X98053571Y-103522428D02*
X97710714Y-103522428D01*
X97882142Y-103522428D02*
X97882142Y-102922428D01*
X97825000Y-103008142D01*
X97767857Y-103065285D01*
X97710714Y-103093857D01*
X98567857Y-103122428D02*
X98567857Y-103522428D01*
X98425000Y-102893857D02*
X98282142Y-103322428D01*
X98653571Y-103322428D01*
X99310714Y-102893857D02*
X98796428Y-103665285D01*
X99510714Y-103522428D02*
X99510714Y-102922428D01*
X99739285Y-102922428D01*
X99796428Y-102951000D01*
X99825000Y-102979571D01*
X99853571Y-103036714D01*
X99853571Y-103122428D01*
X99825000Y-103179571D01*
X99796428Y-103208142D01*
X99739285Y-103236714D01*
X99510714Y-103236714D01*
X100110714Y-103522428D02*
X100110714Y-103122428D01*
X100110714Y-102922428D02*
X100082142Y-102951000D01*
X100110714Y-102979571D01*
X100139285Y-102951000D01*
X100110714Y-102922428D01*
X100110714Y-102979571D01*
X100396428Y-103122428D02*
X100396428Y-103522428D01*
X100396428Y-103179571D02*
X100425000Y-103151000D01*
X100482142Y-103122428D01*
X100567857Y-103122428D01*
X100625000Y-103151000D01*
X100653571Y-103208142D01*
X100653571Y-103522428D01*
X101025000Y-103179571D02*
X100967857Y-103151000D01*
X100939285Y-103122428D01*
X100910714Y-103065285D01*
X100910714Y-103036714D01*
X100939285Y-102979571D01*
X100967857Y-102951000D01*
X101025000Y-102922428D01*
X101139285Y-102922428D01*
X101196428Y-102951000D01*
X101225000Y-102979571D01*
X101253571Y-103036714D01*
X101253571Y-103065285D01*
X101225000Y-103122428D01*
X101196428Y-103151000D01*
X101139285Y-103179571D01*
X101025000Y-103179571D01*
X100967857Y-103208142D01*
X100939285Y-103236714D01*
X100910714Y-103293857D01*
X100910714Y-103408142D01*
X100939285Y-103465285D01*
X100967857Y-103493857D01*
X101025000Y-103522428D01*
X101139285Y-103522428D01*
X101196428Y-103493857D01*
X101225000Y-103465285D01*
X101253571Y-103408142D01*
X101253571Y-103293857D01*
X101225000Y-103236714D01*
X101196428Y-103208142D01*
X101139285Y-103179571D01*
D10*
%TO.C,J1*%
X93134380Y-93932333D02*
X93848666Y-93932333D01*
X93991523Y-93979952D01*
X94086761Y-94075190D01*
X94134380Y-94218047D01*
X94134380Y-94313285D01*
X94134380Y-92932333D02*
X94134380Y-93503761D01*
X94134380Y-93218047D02*
X93134380Y-93218047D01*
X93277238Y-93313285D01*
X93372476Y-93408523D01*
X93420095Y-93503761D01*
%TO.C,R1*%
X97188833Y-98742666D02*
X96955500Y-98409333D01*
X96788833Y-98742666D02*
X96788833Y-98042666D01*
X97055500Y-98042666D01*
X97122166Y-98076000D01*
X97155500Y-98109333D01*
X97188833Y-98176000D01*
X97188833Y-98276000D01*
X97155500Y-98342666D01*
X97122166Y-98376000D01*
X97055500Y-98409333D01*
X96788833Y-98409333D01*
X97855500Y-98742666D02*
X97455500Y-98742666D01*
X97655500Y-98742666D02*
X97655500Y-98042666D01*
X97588833Y-98142666D01*
X97522166Y-98209333D01*
X97455500Y-98242666D01*
X96138833Y-102432380D02*
X95567404Y-102432380D01*
X95853119Y-102432380D02*
X95853119Y-101432380D01*
X95757880Y-101575238D01*
X95662642Y-101670476D01*
X95567404Y-101718095D01*
X96757880Y-101432380D02*
X96853119Y-101432380D01*
X96948357Y-101480000D01*
X96995976Y-101527619D01*
X97043595Y-101622857D01*
X97091214Y-101813333D01*
X97091214Y-102051428D01*
X97043595Y-102241904D01*
X96995976Y-102337142D01*
X96948357Y-102384761D01*
X96853119Y-102432380D01*
X96757880Y-102432380D01*
X96662642Y-102384761D01*
X96615023Y-102337142D01*
X96567404Y-102241904D01*
X96519785Y-102051428D01*
X96519785Y-101813333D01*
X96567404Y-101622857D01*
X96615023Y-101527619D01*
X96662642Y-101480000D01*
X96757880Y-101432380D01*
X97519785Y-102432380D02*
X97519785Y-101432380D01*
X97615023Y-102051428D02*
X97900738Y-102432380D01*
X97900738Y-101765714D02*
X97519785Y-102146666D01*
X98281690Y-102432380D02*
X98519785Y-102432380D01*
X98519785Y-102241904D01*
X98424547Y-102194285D01*
X98329309Y-102099047D01*
X98281690Y-101956190D01*
X98281690Y-101718095D01*
X98329309Y-101575238D01*
X98424547Y-101480000D01*
X98567404Y-101432380D01*
X98757880Y-101432380D01*
X98900738Y-101480000D01*
X98995976Y-101575238D01*
X99043595Y-101718095D01*
X99043595Y-101956190D01*
X98995976Y-102099047D01*
X98900738Y-102194285D01*
X98805500Y-102241904D01*
X98805500Y-102432380D01*
X99043595Y-102432380D01*
%TO.C,R2*%
X103094333Y-98742666D02*
X102861000Y-98409333D01*
X102694333Y-98742666D02*
X102694333Y-98042666D01*
X102961000Y-98042666D01*
X103027666Y-98076000D01*
X103061000Y-98109333D01*
X103094333Y-98176000D01*
X103094333Y-98276000D01*
X103061000Y-98342666D01*
X103027666Y-98376000D01*
X102961000Y-98409333D01*
X102694333Y-98409333D01*
X103361000Y-98109333D02*
X103394333Y-98076000D01*
X103461000Y-98042666D01*
X103627666Y-98042666D01*
X103694333Y-98076000D01*
X103727666Y-98109333D01*
X103761000Y-98176000D01*
X103761000Y-98242666D01*
X103727666Y-98342666D01*
X103327666Y-98742666D01*
X103761000Y-98742666D01*
X102044333Y-102432380D02*
X101472904Y-102432380D01*
X101758619Y-102432380D02*
X101758619Y-101432380D01*
X101663380Y-101575238D01*
X101568142Y-101670476D01*
X101472904Y-101718095D01*
X102663380Y-101432380D02*
X102758619Y-101432380D01*
X102853857Y-101480000D01*
X102901476Y-101527619D01*
X102949095Y-101622857D01*
X102996714Y-101813333D01*
X102996714Y-102051428D01*
X102949095Y-102241904D01*
X102901476Y-102337142D01*
X102853857Y-102384761D01*
X102758619Y-102432380D01*
X102663380Y-102432380D01*
X102568142Y-102384761D01*
X102520523Y-102337142D01*
X102472904Y-102241904D01*
X102425285Y-102051428D01*
X102425285Y-101813333D01*
X102472904Y-101622857D01*
X102520523Y-101527619D01*
X102568142Y-101480000D01*
X102663380Y-101432380D01*
X103425285Y-102432380D02*
X103425285Y-101432380D01*
X103520523Y-102051428D02*
X103806238Y-102432380D01*
X103806238Y-101765714D02*
X103425285Y-102146666D01*
X104187190Y-102432380D02*
X104425285Y-102432380D01*
X104425285Y-102241904D01*
X104330047Y-102194285D01*
X104234809Y-102099047D01*
X104187190Y-101956190D01*
X104187190Y-101718095D01*
X104234809Y-101575238D01*
X104330047Y-101480000D01*
X104472904Y-101432380D01*
X104663380Y-101432380D01*
X104806238Y-101480000D01*
X104901476Y-101575238D01*
X104949095Y-101718095D01*
X104949095Y-101956190D01*
X104901476Y-102099047D01*
X104806238Y-102194285D01*
X104711000Y-102241904D01*
X104711000Y-102432380D01*
X104949095Y-102432380D01*
%TO.C,R3*%
X108976333Y-103649666D02*
X108743000Y-103316333D01*
X108576333Y-103649666D02*
X108576333Y-102949666D01*
X108843000Y-102949666D01*
X108909666Y-102983000D01*
X108943000Y-103016333D01*
X108976333Y-103083000D01*
X108976333Y-103183000D01*
X108943000Y-103249666D01*
X108909666Y-103283000D01*
X108843000Y-103316333D01*
X108576333Y-103316333D01*
X109209666Y-102949666D02*
X109643000Y-102949666D01*
X109409666Y-103216333D01*
X109509666Y-103216333D01*
X109576333Y-103249666D01*
X109609666Y-103283000D01*
X109643000Y-103349666D01*
X109643000Y-103516333D01*
X109609666Y-103583000D01*
X109576333Y-103616333D01*
X109509666Y-103649666D01*
X109309666Y-103649666D01*
X109243000Y-103616333D01*
X109209666Y-103583000D01*
X107259357Y-106004380D02*
X107878404Y-106004380D01*
X107545071Y-106385333D01*
X107687928Y-106385333D01*
X107783166Y-106432952D01*
X107830785Y-106480571D01*
X107878404Y-106575809D01*
X107878404Y-106813904D01*
X107830785Y-106909142D01*
X107783166Y-106956761D01*
X107687928Y-107004380D01*
X107402214Y-107004380D01*
X107306976Y-106956761D01*
X107259357Y-106909142D01*
X108211738Y-106004380D02*
X108830785Y-106004380D01*
X108497452Y-106385333D01*
X108640309Y-106385333D01*
X108735547Y-106432952D01*
X108783166Y-106480571D01*
X108830785Y-106575809D01*
X108830785Y-106813904D01*
X108783166Y-106909142D01*
X108735547Y-106956761D01*
X108640309Y-107004380D01*
X108354595Y-107004380D01*
X108259357Y-106956761D01*
X108211738Y-106909142D01*
X109449833Y-106004380D02*
X109545071Y-106004380D01*
X109640309Y-106052000D01*
X109687928Y-106099619D01*
X109735547Y-106194857D01*
X109783166Y-106385333D01*
X109783166Y-106623428D01*
X109735547Y-106813904D01*
X109687928Y-106909142D01*
X109640309Y-106956761D01*
X109545071Y-107004380D01*
X109449833Y-107004380D01*
X109354595Y-106956761D01*
X109306976Y-106909142D01*
X109259357Y-106813904D01*
X109211738Y-106623428D01*
X109211738Y-106385333D01*
X109259357Y-106194857D01*
X109306976Y-106099619D01*
X109354595Y-106052000D01*
X109449833Y-106004380D01*
X110164119Y-107004380D02*
X110402214Y-107004380D01*
X110402214Y-106813904D01*
X110306976Y-106766285D01*
X110211738Y-106671047D01*
X110164119Y-106528190D01*
X110164119Y-106290095D01*
X110211738Y-106147238D01*
X110306976Y-106052000D01*
X110449833Y-106004380D01*
X110640309Y-106004380D01*
X110783166Y-106052000D01*
X110878404Y-106147238D01*
X110926023Y-106290095D01*
X110926023Y-106528190D01*
X110878404Y-106671047D01*
X110783166Y-106766285D01*
X110687928Y-106813904D01*
X110687928Y-107004380D01*
X110926023Y-107004380D01*
%TO.C,R4*%
X108976333Y-98742666D02*
X108743000Y-98409333D01*
X108576333Y-98742666D02*
X108576333Y-98042666D01*
X108843000Y-98042666D01*
X108909666Y-98076000D01*
X108943000Y-98109333D01*
X108976333Y-98176000D01*
X108976333Y-98276000D01*
X108943000Y-98342666D01*
X108909666Y-98376000D01*
X108843000Y-98409333D01*
X108576333Y-98409333D01*
X109576333Y-98276000D02*
X109576333Y-98742666D01*
X109409666Y-98009333D02*
X109243000Y-98509333D01*
X109676333Y-98509333D01*
X107259357Y-101432380D02*
X107878404Y-101432380D01*
X107545071Y-101813333D01*
X107687928Y-101813333D01*
X107783166Y-101860952D01*
X107830785Y-101908571D01*
X107878404Y-102003809D01*
X107878404Y-102241904D01*
X107830785Y-102337142D01*
X107783166Y-102384761D01*
X107687928Y-102432380D01*
X107402214Y-102432380D01*
X107306976Y-102384761D01*
X107259357Y-102337142D01*
X108211738Y-101432380D02*
X108830785Y-101432380D01*
X108497452Y-101813333D01*
X108640309Y-101813333D01*
X108735547Y-101860952D01*
X108783166Y-101908571D01*
X108830785Y-102003809D01*
X108830785Y-102241904D01*
X108783166Y-102337142D01*
X108735547Y-102384761D01*
X108640309Y-102432380D01*
X108354595Y-102432380D01*
X108259357Y-102384761D01*
X108211738Y-102337142D01*
X109449833Y-101432380D02*
X109545071Y-101432380D01*
X109640309Y-101480000D01*
X109687928Y-101527619D01*
X109735547Y-101622857D01*
X109783166Y-101813333D01*
X109783166Y-102051428D01*
X109735547Y-102241904D01*
X109687928Y-102337142D01*
X109640309Y-102384761D01*
X109545071Y-102432380D01*
X109449833Y-102432380D01*
X109354595Y-102384761D01*
X109306976Y-102337142D01*
X109259357Y-102241904D01*
X109211738Y-102051428D01*
X109211738Y-101813333D01*
X109259357Y-101622857D01*
X109306976Y-101527619D01*
X109354595Y-101480000D01*
X109449833Y-101432380D01*
X110164119Y-102432380D02*
X110402214Y-102432380D01*
X110402214Y-102241904D01*
X110306976Y-102194285D01*
X110211738Y-102099047D01*
X110164119Y-101956190D01*
X110164119Y-101718095D01*
X110211738Y-101575238D01*
X110306976Y-101480000D01*
X110449833Y-101432380D01*
X110640309Y-101432380D01*
X110783166Y-101480000D01*
X110878404Y-101575238D01*
X110926023Y-101718095D01*
X110926023Y-101956190D01*
X110878404Y-102099047D01*
X110783166Y-102194285D01*
X110687928Y-102241904D01*
X110687928Y-102432380D01*
X110926023Y-102432380D01*
%TO.C,SW1*%
D11*
X96254857Y-107480000D02*
X96283428Y-107394285D01*
X96283428Y-107251428D01*
X96254857Y-107194285D01*
X96226285Y-107165714D01*
X96169142Y-107137142D01*
X96112000Y-107137142D01*
X96054857Y-107165714D01*
X96026285Y-107194285D01*
X95997714Y-107251428D01*
X95969142Y-107365714D01*
X95940571Y-107422857D01*
X95912000Y-107451428D01*
X95854857Y-107480000D01*
X95797714Y-107480000D01*
X95740571Y-107451428D01*
X95712000Y-107422857D01*
X95683428Y-107365714D01*
X95683428Y-107222857D01*
X95712000Y-107137142D01*
X95683428Y-106937142D02*
X96283428Y-106794285D01*
X95854857Y-106680000D01*
X96283428Y-106565714D01*
X95683428Y-106422857D01*
X96283428Y-105880000D02*
X96283428Y-106222857D01*
X96283428Y-106051428D02*
X95683428Y-106051428D01*
X95769142Y-106108571D01*
X95826285Y-106165714D01*
X95854857Y-106222857D01*
%TO.C,U1*%
D10*
X115574380Y-109854904D02*
X116383904Y-109854904D01*
X116479142Y-109807285D01*
X116526761Y-109759666D01*
X116574380Y-109664428D01*
X116574380Y-109473952D01*
X116526761Y-109378714D01*
X116479142Y-109331095D01*
X116383904Y-109283476D01*
X115574380Y-109283476D01*
X116574380Y-108283476D02*
X116574380Y-108854904D01*
X116574380Y-108569190D02*
X115574380Y-108569190D01*
X115717238Y-108664428D01*
X115812476Y-108759666D01*
X115860095Y-108854904D01*
X104583666Y-111465333D02*
X103883666Y-111465333D01*
X103883666Y-111298666D01*
X103917000Y-111198666D01*
X103983666Y-111132000D01*
X104050333Y-111098666D01*
X104183666Y-111065333D01*
X104283666Y-111065333D01*
X104417000Y-111098666D01*
X104483666Y-111132000D01*
X104550333Y-111198666D01*
X104583666Y-111298666D01*
X104583666Y-111465333D01*
X104583666Y-110765333D02*
X103883666Y-110765333D01*
X104217000Y-110765333D02*
X104217000Y-110365333D01*
X104583666Y-110365333D02*
X103883666Y-110365333D01*
X103883666Y-110132000D02*
X103883666Y-109732000D01*
X104583666Y-109932000D02*
X103883666Y-109932000D01*
X104583666Y-109132000D02*
X104583666Y-109532000D01*
X104583666Y-109332000D02*
X103883666Y-109332000D01*
X103983666Y-109398666D01*
X104050333Y-109465333D01*
X104083666Y-109532000D01*
X104583666Y-108465333D02*
X104583666Y-108865333D01*
X104583666Y-108665333D02*
X103883666Y-108665333D01*
X103983666Y-108732000D01*
X104050333Y-108798666D01*
X104083666Y-108865333D01*
%TO.C,D1*%
X113735833Y-103649666D02*
X113735833Y-102949666D01*
X113902500Y-102949666D01*
X114002500Y-102983000D01*
X114069166Y-103049666D01*
X114102500Y-103116333D01*
X114135833Y-103249666D01*
X114135833Y-103349666D01*
X114102500Y-103483000D01*
X114069166Y-103549666D01*
X114002500Y-103616333D01*
X113902500Y-103649666D01*
X113735833Y-103649666D01*
X114802500Y-103649666D02*
X114402500Y-103649666D01*
X114602500Y-103649666D02*
X114602500Y-102949666D01*
X114535833Y-103049666D01*
X114469166Y-103116333D01*
X114402500Y-103149666D01*
%TO.C,D2*%
X113735833Y-98742666D02*
X113735833Y-98042666D01*
X113902500Y-98042666D01*
X114002500Y-98076000D01*
X114069166Y-98142666D01*
X114102500Y-98209333D01*
X114135833Y-98342666D01*
X114135833Y-98442666D01*
X114102500Y-98576000D01*
X114069166Y-98642666D01*
X114002500Y-98709333D01*
X113902500Y-98742666D01*
X113735833Y-98742666D01*
X114402500Y-98109333D02*
X114435833Y-98076000D01*
X114502500Y-98042666D01*
X114669166Y-98042666D01*
X114735833Y-98076000D01*
X114769166Y-98109333D01*
X114802500Y-98176000D01*
X114802500Y-98242666D01*
X114769166Y-98342666D01*
X114369166Y-98742666D01*
X114802500Y-98742666D01*
%TD*%
M02*
