%TF.GenerationSoftware,KiCad,Pcbnew,5.1.7-a382d34a8~87~ubuntu20.04.1*%
%TF.CreationDate,2020-11-06T02:00:15-03:00*%
%TF.ProjectId,RPI_HAT,5250495f-4841-4542-9e6b-696361645f70,v1 *%
%TF.SameCoordinates,Original*%
%TF.FileFunction,Legend,Bot*%
%TF.FilePolarity,Positive*%
%FSLAX46Y46*%
G04 Gerber Fmt 4.6, Leading zero omitted, Abs format (unit mm)*
G04 Created by KiCad (PCBNEW 5.1.7-a382d34a8~87~ubuntu20.04.1) date 2020-11-06 02:00:15*
%MOMM*%
%LPD*%
G01*
G04 APERTURE LIST*
%ADD10C,0.150000*%
%ADD11C,0.125000*%
%ADD12C,0.010000*%
G04 APERTURE END LIST*
D10*
X83226380Y-108981428D02*
X83226380Y-109552857D01*
X83226380Y-109267142D02*
X82226380Y-109267142D01*
X82369238Y-109362380D01*
X82464476Y-109457619D01*
X82512095Y-109552857D01*
X82226380Y-108648095D02*
X82226380Y-108029047D01*
X82607333Y-108362380D01*
X82607333Y-108219523D01*
X82654952Y-108124285D01*
X82702571Y-108076666D01*
X82797809Y-108029047D01*
X83035904Y-108029047D01*
X83131142Y-108076666D01*
X83178761Y-108124285D01*
X83226380Y-108219523D01*
X83226380Y-108505238D01*
X83178761Y-108600476D01*
X83131142Y-108648095D01*
X83131142Y-107600476D02*
X83178761Y-107552857D01*
X83226380Y-107600476D01*
X83178761Y-107648095D01*
X83131142Y-107600476D01*
X83226380Y-107600476D01*
X82321619Y-107171904D02*
X82274000Y-107124285D01*
X82226380Y-107029047D01*
X82226380Y-106790952D01*
X82274000Y-106695714D01*
X82321619Y-106648095D01*
X82416857Y-106600476D01*
X82512095Y-106600476D01*
X82654952Y-106648095D01*
X83226380Y-107219523D01*
X83226380Y-106600476D01*
X82226380Y-105981428D02*
X82226380Y-105886190D01*
X82274000Y-105790952D01*
X82321619Y-105743333D01*
X82416857Y-105695714D01*
X82607333Y-105648095D01*
X82845428Y-105648095D01*
X83035904Y-105695714D01*
X83131142Y-105743333D01*
X83178761Y-105790952D01*
X83226380Y-105886190D01*
X83226380Y-105981428D01*
X83178761Y-106076666D01*
X83131142Y-106124285D01*
X83035904Y-106171904D01*
X82845428Y-106219523D01*
X82607333Y-106219523D01*
X82416857Y-106171904D01*
X82321619Y-106124285D01*
X82274000Y-106076666D01*
X82226380Y-105981428D01*
X82654952Y-105076666D02*
X82607333Y-105171904D01*
X82559714Y-105219523D01*
X82464476Y-105267142D01*
X82416857Y-105267142D01*
X82321619Y-105219523D01*
X82274000Y-105171904D01*
X82226380Y-105076666D01*
X82226380Y-104886190D01*
X82274000Y-104790952D01*
X82321619Y-104743333D01*
X82416857Y-104695714D01*
X82464476Y-104695714D01*
X82559714Y-104743333D01*
X82607333Y-104790952D01*
X82654952Y-104886190D01*
X82654952Y-105076666D01*
X82702571Y-105171904D01*
X82750190Y-105219523D01*
X82845428Y-105267142D01*
X83035904Y-105267142D01*
X83131142Y-105219523D01*
X83178761Y-105171904D01*
X83226380Y-105076666D01*
X83226380Y-104886190D01*
X83178761Y-104790952D01*
X83131142Y-104743333D01*
X83035904Y-104695714D01*
X82845428Y-104695714D01*
X82750190Y-104743333D01*
X82702571Y-104790952D01*
X82654952Y-104886190D01*
X83226380Y-103505238D02*
X82559714Y-103505238D01*
X82654952Y-103505238D02*
X82607333Y-103457619D01*
X82559714Y-103362380D01*
X82559714Y-103219523D01*
X82607333Y-103124285D01*
X82702571Y-103076666D01*
X83226380Y-103076666D01*
X82702571Y-103076666D02*
X82607333Y-103029047D01*
X82559714Y-102933809D01*
X82559714Y-102790952D01*
X82607333Y-102695714D01*
X82702571Y-102648095D01*
X83226380Y-102648095D01*
X83226380Y-102171904D02*
X82559714Y-102171904D01*
X82654952Y-102171904D02*
X82607333Y-102124285D01*
X82559714Y-102029047D01*
X82559714Y-101886190D01*
X82607333Y-101790952D01*
X82702571Y-101743333D01*
X83226380Y-101743333D01*
X82702571Y-101743333D02*
X82607333Y-101695714D01*
X82559714Y-101600476D01*
X82559714Y-101457619D01*
X82607333Y-101362380D01*
X82702571Y-101314761D01*
X83226380Y-101314761D01*
X84074000Y-112014000D02*
X84074000Y-98806000D01*
X94615000Y-112014000D02*
X83487579Y-112014000D01*
X94615000Y-98806000D02*
X83487579Y-98806000D01*
X84074000Y-98806000D02*
X84660421Y-99932504D01*
X84074000Y-98806000D02*
X83487579Y-99932504D01*
X84074000Y-112014000D02*
X84660421Y-110887496D01*
X84074000Y-112014000D02*
X83487579Y-110887496D01*
X86210952Y-97900690D02*
X86163333Y-97995928D01*
X86115714Y-98043547D01*
X86020476Y-98091166D01*
X85972857Y-98091166D01*
X85877619Y-98043547D01*
X85830000Y-97995928D01*
X85782380Y-97900690D01*
X85782380Y-97710214D01*
X85830000Y-97614976D01*
X85877619Y-97567357D01*
X85972857Y-97519738D01*
X86020476Y-97519738D01*
X86115714Y-97567357D01*
X86163333Y-97614976D01*
X86210952Y-97710214D01*
X86210952Y-97900690D01*
X86258571Y-97995928D01*
X86306190Y-98043547D01*
X86401428Y-98091166D01*
X86591904Y-98091166D01*
X86687142Y-98043547D01*
X86734761Y-97995928D01*
X86782380Y-97900690D01*
X86782380Y-97710214D01*
X86734761Y-97614976D01*
X86687142Y-97567357D01*
X86591904Y-97519738D01*
X86401428Y-97519738D01*
X86306190Y-97567357D01*
X86258571Y-97614976D01*
X86210952Y-97710214D01*
X86687142Y-97091166D02*
X86734761Y-97043547D01*
X86782380Y-97091166D01*
X86734761Y-97138785D01*
X86687142Y-97091166D01*
X86782380Y-97091166D01*
X85782380Y-96710214D02*
X85782380Y-96043547D01*
X86782380Y-96472119D01*
X85782380Y-95234023D02*
X85782380Y-95424500D01*
X85830000Y-95519738D01*
X85877619Y-95567357D01*
X86020476Y-95662595D01*
X86210952Y-95710214D01*
X86591904Y-95710214D01*
X86687142Y-95662595D01*
X86734761Y-95614976D01*
X86782380Y-95519738D01*
X86782380Y-95329261D01*
X86734761Y-95234023D01*
X86687142Y-95186404D01*
X86591904Y-95138785D01*
X86353809Y-95138785D01*
X86258571Y-95186404D01*
X86210952Y-95234023D01*
X86163333Y-95329261D01*
X86163333Y-95519738D01*
X86210952Y-95614976D01*
X86258571Y-95662595D01*
X86353809Y-95710214D01*
X85782380Y-94805452D02*
X85782380Y-94186404D01*
X86163333Y-94519738D01*
X86163333Y-94376880D01*
X86210952Y-94281642D01*
X86258571Y-94234023D01*
X86353809Y-94186404D01*
X86591904Y-94186404D01*
X86687142Y-94234023D01*
X86734761Y-94281642D01*
X86782380Y-94376880D01*
X86782380Y-94662595D01*
X86734761Y-94757833D01*
X86687142Y-94805452D01*
X86782380Y-92995928D02*
X86115714Y-92995928D01*
X86210952Y-92995928D02*
X86163333Y-92948309D01*
X86115714Y-92853071D01*
X86115714Y-92710214D01*
X86163333Y-92614976D01*
X86258571Y-92567357D01*
X86782380Y-92567357D01*
X86258571Y-92567357D02*
X86163333Y-92519738D01*
X86115714Y-92424500D01*
X86115714Y-92281642D01*
X86163333Y-92186404D01*
X86258571Y-92138785D01*
X86782380Y-92138785D01*
X86782380Y-91662595D02*
X86115714Y-91662595D01*
X86210952Y-91662595D02*
X86163333Y-91614976D01*
X86115714Y-91519738D01*
X86115714Y-91376880D01*
X86163333Y-91281642D01*
X86258571Y-91234023D01*
X86782380Y-91234023D01*
X86258571Y-91234023D02*
X86163333Y-91186404D01*
X86115714Y-91091166D01*
X86115714Y-90948309D01*
X86163333Y-90853071D01*
X86258571Y-90805452D01*
X86782380Y-90805452D01*
X87630000Y-98806000D02*
X87630000Y-90043000D01*
X89662000Y-98806000D02*
X87043579Y-98806000D01*
X89662000Y-90043000D02*
X87043579Y-90043000D01*
X87630000Y-90043000D02*
X88216421Y-91169504D01*
X87630000Y-90043000D02*
X87043579Y-91169504D01*
X87630000Y-98806000D02*
X88216421Y-97679496D01*
X87630000Y-98806000D02*
X87043579Y-97679496D01*
X78892619Y-105171357D02*
X78845000Y-105123738D01*
X78797380Y-105028500D01*
X78797380Y-104790404D01*
X78845000Y-104695166D01*
X78892619Y-104647547D01*
X78987857Y-104599928D01*
X79083095Y-104599928D01*
X79225952Y-104647547D01*
X79797380Y-105218976D01*
X79797380Y-104599928D01*
X79797380Y-103647547D02*
X79797380Y-104218976D01*
X79797380Y-103933261D02*
X78797380Y-103933261D01*
X78940238Y-104028500D01*
X79035476Y-104123738D01*
X79083095Y-104218976D01*
X79702142Y-103218976D02*
X79749761Y-103171357D01*
X79797380Y-103218976D01*
X79749761Y-103266595D01*
X79702142Y-103218976D01*
X79797380Y-103218976D01*
X79797380Y-102695166D02*
X79797380Y-102504690D01*
X79749761Y-102409452D01*
X79702142Y-102361833D01*
X79559285Y-102266595D01*
X79368809Y-102218976D01*
X78987857Y-102218976D01*
X78892619Y-102266595D01*
X78845000Y-102314214D01*
X78797380Y-102409452D01*
X78797380Y-102599928D01*
X78845000Y-102695166D01*
X78892619Y-102742785D01*
X78987857Y-102790404D01*
X79225952Y-102790404D01*
X79321190Y-102742785D01*
X79368809Y-102695166D01*
X79416428Y-102599928D01*
X79416428Y-102409452D01*
X79368809Y-102314214D01*
X79321190Y-102266595D01*
X79225952Y-102218976D01*
X78797380Y-101885642D02*
X78797380Y-101218976D01*
X79797380Y-101647547D01*
X79797380Y-100314214D02*
X79797380Y-100885642D01*
X79797380Y-100599928D02*
X78797380Y-100599928D01*
X78940238Y-100695166D01*
X79035476Y-100790404D01*
X79083095Y-100885642D01*
X79797380Y-99123738D02*
X79130714Y-99123738D01*
X79225952Y-99123738D02*
X79178333Y-99076119D01*
X79130714Y-98980880D01*
X79130714Y-98838023D01*
X79178333Y-98742785D01*
X79273571Y-98695166D01*
X79797380Y-98695166D01*
X79273571Y-98695166D02*
X79178333Y-98647547D01*
X79130714Y-98552309D01*
X79130714Y-98409452D01*
X79178333Y-98314214D01*
X79273571Y-98266595D01*
X79797380Y-98266595D01*
X79797380Y-97790404D02*
X79130714Y-97790404D01*
X79225952Y-97790404D02*
X79178333Y-97742785D01*
X79130714Y-97647547D01*
X79130714Y-97504690D01*
X79178333Y-97409452D01*
X79273571Y-97361833D01*
X79797380Y-97361833D01*
X79273571Y-97361833D02*
X79178333Y-97314214D01*
X79130714Y-97218976D01*
X79130714Y-97076119D01*
X79178333Y-96980880D01*
X79273571Y-96933261D01*
X79797380Y-96933261D01*
X80645000Y-112014000D02*
X80645000Y-90043000D01*
X94615000Y-112014000D02*
X80058579Y-112014000D01*
X94615000Y-90043000D02*
X80058579Y-90043000D01*
X80645000Y-90043000D02*
X81231421Y-91169504D01*
X80645000Y-90043000D02*
X80058579Y-91169504D01*
X80645000Y-112014000D02*
X81231421Y-110887496D01*
X80645000Y-112014000D02*
X80058579Y-110887496D01*
D11*
X116428000Y-103280333D02*
X116361333Y-103313666D01*
X116228000Y-103313666D01*
X116161333Y-103280333D01*
X116128000Y-103213666D01*
X116128000Y-103180333D01*
X116161333Y-103113666D01*
X116228000Y-103080333D01*
X116328000Y-103080333D01*
X116394666Y-103047000D01*
X116428000Y-102980333D01*
X116428000Y-102947000D01*
X116394666Y-102880333D01*
X116328000Y-102847000D01*
X116228000Y-102847000D01*
X116161333Y-102880333D01*
X115828000Y-103313666D02*
X115828000Y-102847000D01*
X115828000Y-102613666D02*
X115861333Y-102647000D01*
X115828000Y-102680333D01*
X115794666Y-102647000D01*
X115828000Y-102613666D01*
X115828000Y-102680333D01*
X115494666Y-103313666D02*
X115494666Y-102847000D01*
X115494666Y-102913666D02*
X115461333Y-102880333D01*
X115394666Y-102847000D01*
X115294666Y-102847000D01*
X115228000Y-102880333D01*
X115194666Y-102947000D01*
X115194666Y-103313666D01*
X115194666Y-102947000D02*
X115161333Y-102880333D01*
X115094666Y-102847000D01*
X114994666Y-102847000D01*
X114928000Y-102880333D01*
X114894666Y-102947000D01*
X114894666Y-103313666D01*
X114461333Y-103313666D02*
X114528000Y-103280333D01*
X114561333Y-103247000D01*
X114594666Y-103180333D01*
X114594666Y-102980333D01*
X114561333Y-102913666D01*
X114528000Y-102880333D01*
X114461333Y-102847000D01*
X114361333Y-102847000D01*
X114294666Y-102880333D01*
X114261333Y-102913666D01*
X114228000Y-102980333D01*
X114228000Y-103180333D01*
X114261333Y-103247000D01*
X114294666Y-103280333D01*
X114361333Y-103313666D01*
X114461333Y-103313666D01*
X113928000Y-102847000D02*
X113928000Y-103313666D01*
X113928000Y-102913666D02*
X113894666Y-102880333D01*
X113828000Y-102847000D01*
X113728000Y-102847000D01*
X113661333Y-102880333D01*
X113628000Y-102947000D01*
X113628000Y-103313666D01*
X113294666Y-102847000D02*
X113294666Y-103447000D01*
X113328000Y-103513666D01*
X113394666Y-103547000D01*
X113428000Y-103547000D01*
X113294666Y-102613666D02*
X113328000Y-102647000D01*
X113294666Y-102680333D01*
X113261333Y-102647000D01*
X113294666Y-102613666D01*
X113294666Y-102680333D01*
X112661333Y-103313666D02*
X112661333Y-102947000D01*
X112694666Y-102880333D01*
X112761333Y-102847000D01*
X112894666Y-102847000D01*
X112961333Y-102880333D01*
X112661333Y-103280333D02*
X112728000Y-103313666D01*
X112894666Y-103313666D01*
X112961333Y-103280333D01*
X112994666Y-103213666D01*
X112994666Y-103147000D01*
X112961333Y-103080333D01*
X112894666Y-103047000D01*
X112728000Y-103047000D01*
X112661333Y-103013666D01*
X112228000Y-103313666D02*
X112294666Y-103280333D01*
X112328000Y-103213666D01*
X112328000Y-102613666D01*
X111961333Y-103313666D02*
X111961333Y-102847000D01*
X111961333Y-102613666D02*
X111994666Y-102647000D01*
X111961333Y-102680333D01*
X111928000Y-102647000D01*
X111961333Y-102613666D01*
X111961333Y-102680333D01*
X111528000Y-103313666D02*
X111594666Y-103280333D01*
X111628000Y-103213666D01*
X111628000Y-102613666D01*
X110961333Y-103280333D02*
X111028000Y-103313666D01*
X111161333Y-103313666D01*
X111228000Y-103280333D01*
X111261333Y-103247000D01*
X111294666Y-103180333D01*
X111294666Y-102980333D01*
X111261333Y-102913666D01*
X111228000Y-102880333D01*
X111161333Y-102847000D01*
X111028000Y-102847000D01*
X110961333Y-102880333D01*
X110661333Y-103313666D02*
X110661333Y-102847000D01*
X110661333Y-102980333D02*
X110628000Y-102913666D01*
X110594666Y-102880333D01*
X110528000Y-102847000D01*
X110461333Y-102847000D01*
X109928000Y-102847000D02*
X109928000Y-103313666D01*
X110228000Y-102847000D02*
X110228000Y-103213666D01*
X110194666Y-103280333D01*
X110128000Y-103313666D01*
X110028000Y-103313666D01*
X109961333Y-103280333D01*
X109928000Y-103247000D01*
X109661333Y-102847000D02*
X109294666Y-102847000D01*
X109661333Y-103313666D01*
X109294666Y-103313666D01*
X108594666Y-102980333D02*
X108628000Y-102947000D01*
X108694666Y-102913666D01*
X108761333Y-102913666D01*
X108828000Y-102947000D01*
X108861333Y-102980333D01*
X108894666Y-103047000D01*
X108894666Y-103113666D01*
X108861333Y-103180333D01*
X108828000Y-103213666D01*
X108761333Y-103247000D01*
X108694666Y-103247000D01*
X108628000Y-103213666D01*
X108594666Y-103180333D01*
X108594666Y-102913666D02*
X108594666Y-103180333D01*
X108561333Y-103213666D01*
X108528000Y-103213666D01*
X108461333Y-103180333D01*
X108428000Y-103113666D01*
X108428000Y-102947000D01*
X108494666Y-102847000D01*
X108594666Y-102780333D01*
X108728000Y-102747000D01*
X108861333Y-102780333D01*
X108961333Y-102847000D01*
X109028000Y-102947000D01*
X109061333Y-103080333D01*
X109028000Y-103213666D01*
X108961333Y-103313666D01*
X108861333Y-103380333D01*
X108728000Y-103413666D01*
X108594666Y-103380333D01*
X108494666Y-103313666D01*
X107828000Y-102847000D02*
X107828000Y-103413666D01*
X107861333Y-103480333D01*
X107894666Y-103513666D01*
X107961333Y-103547000D01*
X108061333Y-103547000D01*
X108128000Y-103513666D01*
X107828000Y-103280333D02*
X107894666Y-103313666D01*
X108028000Y-103313666D01*
X108094666Y-103280333D01*
X108128000Y-103247000D01*
X108161333Y-103180333D01*
X108161333Y-102980333D01*
X108128000Y-102913666D01*
X108094666Y-102880333D01*
X108028000Y-102847000D01*
X107894666Y-102847000D01*
X107828000Y-102880333D01*
X107494666Y-103313666D02*
X107494666Y-102847000D01*
X107494666Y-102913666D02*
X107461333Y-102880333D01*
X107394666Y-102847000D01*
X107294666Y-102847000D01*
X107228000Y-102880333D01*
X107194666Y-102947000D01*
X107194666Y-103313666D01*
X107194666Y-102947000D02*
X107161333Y-102880333D01*
X107094666Y-102847000D01*
X106994666Y-102847000D01*
X106928000Y-102880333D01*
X106894666Y-102947000D01*
X106894666Y-103313666D01*
X106261333Y-103313666D02*
X106261333Y-102947000D01*
X106294666Y-102880333D01*
X106361333Y-102847000D01*
X106494666Y-102847000D01*
X106561333Y-102880333D01*
X106261333Y-103280333D02*
X106328000Y-103313666D01*
X106494666Y-103313666D01*
X106561333Y-103280333D01*
X106594666Y-103213666D01*
X106594666Y-103147000D01*
X106561333Y-103080333D01*
X106494666Y-103047000D01*
X106328000Y-103047000D01*
X106261333Y-103013666D01*
X105928000Y-103313666D02*
X105928000Y-102847000D01*
X105928000Y-102613666D02*
X105961333Y-102647000D01*
X105928000Y-102680333D01*
X105894666Y-102647000D01*
X105928000Y-102613666D01*
X105928000Y-102680333D01*
X105494666Y-103313666D02*
X105561333Y-103280333D01*
X105594666Y-103213666D01*
X105594666Y-102613666D01*
X105228000Y-103247000D02*
X105194666Y-103280333D01*
X105228000Y-103313666D01*
X105261333Y-103280333D01*
X105228000Y-103247000D01*
X105228000Y-103313666D01*
X104594666Y-103280333D02*
X104661333Y-103313666D01*
X104794666Y-103313666D01*
X104861333Y-103280333D01*
X104894666Y-103247000D01*
X104928000Y-103180333D01*
X104928000Y-102980333D01*
X104894666Y-102913666D01*
X104861333Y-102880333D01*
X104794666Y-102847000D01*
X104661333Y-102847000D01*
X104594666Y-102880333D01*
X104194666Y-103313666D02*
X104261333Y-103280333D01*
X104294666Y-103247000D01*
X104328000Y-103180333D01*
X104328000Y-102980333D01*
X104294666Y-102913666D01*
X104261333Y-102880333D01*
X104194666Y-102847000D01*
X104094666Y-102847000D01*
X104028000Y-102880333D01*
X103994666Y-102913666D01*
X103961333Y-102980333D01*
X103961333Y-103180333D01*
X103994666Y-103247000D01*
X104028000Y-103280333D01*
X104094666Y-103313666D01*
X104194666Y-103313666D01*
X103661333Y-103313666D02*
X103661333Y-102847000D01*
X103661333Y-102913666D02*
X103628000Y-102880333D01*
X103561333Y-102847000D01*
X103461333Y-102847000D01*
X103394666Y-102880333D01*
X103361333Y-102947000D01*
X103361333Y-103313666D01*
X103361333Y-102947000D02*
X103328000Y-102880333D01*
X103261333Y-102847000D01*
X103161333Y-102847000D01*
X103094666Y-102880333D01*
X103061333Y-102947000D01*
X103061333Y-103313666D01*
D10*
X103134500Y-97521000D02*
X103034500Y-97554333D01*
X103001166Y-97587666D01*
X102967833Y-97654333D01*
X102967833Y-97754333D01*
X103001166Y-97821000D01*
X103034500Y-97854333D01*
X103101166Y-97887666D01*
X103367833Y-97887666D01*
X103367833Y-97187666D01*
X103134500Y-97187666D01*
X103067833Y-97221000D01*
X103034500Y-97254333D01*
X103001166Y-97321000D01*
X103001166Y-97387666D01*
X103034500Y-97454333D01*
X103067833Y-97487666D01*
X103134500Y-97521000D01*
X103367833Y-97521000D01*
X102367833Y-97421000D02*
X102367833Y-97887666D01*
X102667833Y-97421000D02*
X102667833Y-97787666D01*
X102634500Y-97854333D01*
X102567833Y-97887666D01*
X102467833Y-97887666D01*
X102401166Y-97854333D01*
X102367833Y-97821000D01*
X102134500Y-97421000D02*
X101867833Y-97421000D01*
X102034500Y-97187666D02*
X102034500Y-97787666D01*
X102001166Y-97854333D01*
X101934500Y-97887666D01*
X101867833Y-97887666D01*
X101734500Y-97421000D02*
X101467833Y-97421000D01*
X101634500Y-97187666D02*
X101634500Y-97787666D01*
X101601166Y-97854333D01*
X101534500Y-97887666D01*
X101467833Y-97887666D01*
X101134500Y-97887666D02*
X101201166Y-97854333D01*
X101234500Y-97821000D01*
X101267833Y-97754333D01*
X101267833Y-97554333D01*
X101234500Y-97487666D01*
X101201166Y-97454333D01*
X101134500Y-97421000D01*
X101034500Y-97421000D01*
X100967833Y-97454333D01*
X100934500Y-97487666D01*
X100901166Y-97554333D01*
X100901166Y-97754333D01*
X100934500Y-97821000D01*
X100967833Y-97854333D01*
X101034500Y-97887666D01*
X101134500Y-97887666D01*
X100601166Y-97887666D02*
X100601166Y-97421000D01*
X100601166Y-97487666D02*
X100567833Y-97454333D01*
X100501166Y-97421000D01*
X100401166Y-97421000D01*
X100334500Y-97454333D01*
X100301166Y-97521000D01*
X100301166Y-97887666D01*
X100301166Y-97521000D02*
X100267833Y-97454333D01*
X100201166Y-97421000D01*
X100101166Y-97421000D01*
X100034500Y-97454333D01*
X100001166Y-97521000D01*
X100001166Y-97887666D01*
X99667833Y-97821000D02*
X99634500Y-97854333D01*
X99667833Y-97887666D01*
X99701166Y-97854333D01*
X99667833Y-97821000D01*
X99667833Y-97887666D01*
X99667833Y-97454333D02*
X99634500Y-97487666D01*
X99667833Y-97521000D01*
X99701166Y-97487666D01*
X99667833Y-97454333D01*
X99667833Y-97521000D01*
X98434500Y-97221000D02*
X98501166Y-97187666D01*
X98601166Y-97187666D01*
X98701166Y-97221000D01*
X98767833Y-97287666D01*
X98801166Y-97354333D01*
X98834500Y-97487666D01*
X98834500Y-97587666D01*
X98801166Y-97721000D01*
X98767833Y-97787666D01*
X98701166Y-97854333D01*
X98601166Y-97887666D01*
X98534500Y-97887666D01*
X98434500Y-97854333D01*
X98401166Y-97821000D01*
X98401166Y-97587666D01*
X98534500Y-97587666D01*
X98101166Y-97887666D02*
X98101166Y-97187666D01*
X97834500Y-97187666D01*
X97767833Y-97221000D01*
X97734500Y-97254333D01*
X97701166Y-97321000D01*
X97701166Y-97421000D01*
X97734500Y-97487666D01*
X97767833Y-97521000D01*
X97834500Y-97554333D01*
X98101166Y-97554333D01*
X97401166Y-97887666D02*
X97401166Y-97187666D01*
X96934500Y-97187666D02*
X96801166Y-97187666D01*
X96734500Y-97221000D01*
X96667833Y-97287666D01*
X96634500Y-97421000D01*
X96634500Y-97654333D01*
X96667833Y-97787666D01*
X96734500Y-97854333D01*
X96801166Y-97887666D01*
X96934500Y-97887666D01*
X97001166Y-97854333D01*
X97067833Y-97787666D01*
X97101166Y-97654333D01*
X97101166Y-97421000D01*
X97067833Y-97287666D01*
X97001166Y-97221000D01*
X96934500Y-97187666D01*
X95967833Y-97887666D02*
X96367833Y-97887666D01*
X96167833Y-97887666D02*
X96167833Y-97187666D01*
X96234500Y-97287666D01*
X96301166Y-97354333D01*
X96367833Y-97387666D01*
X95367833Y-97421000D02*
X95367833Y-97887666D01*
X95534500Y-97154333D02*
X95701166Y-97654333D01*
X95267833Y-97654333D01*
X103034500Y-99087666D02*
X103367833Y-99087666D01*
X103367833Y-98387666D01*
X102801166Y-98721000D02*
X102567833Y-98721000D01*
X102467833Y-99087666D02*
X102801166Y-99087666D01*
X102801166Y-98387666D01*
X102467833Y-98387666D01*
X102167833Y-99087666D02*
X102167833Y-98387666D01*
X102001166Y-98387666D01*
X101901166Y-98421000D01*
X101834500Y-98487666D01*
X101801166Y-98554333D01*
X101767833Y-98687666D01*
X101767833Y-98787666D01*
X101801166Y-98921000D01*
X101834500Y-98987666D01*
X101901166Y-99054333D01*
X102001166Y-99087666D01*
X102167833Y-99087666D01*
X101467833Y-99021000D02*
X101434500Y-99054333D01*
X101467833Y-99087666D01*
X101501166Y-99054333D01*
X101467833Y-99021000D01*
X101467833Y-99087666D01*
X101467833Y-98654333D02*
X101434500Y-98687666D01*
X101467833Y-98721000D01*
X101501166Y-98687666D01*
X101467833Y-98654333D01*
X101467833Y-98721000D01*
X100234500Y-98421000D02*
X100301166Y-98387666D01*
X100401166Y-98387666D01*
X100501166Y-98421000D01*
X100567833Y-98487666D01*
X100601166Y-98554333D01*
X100634500Y-98687666D01*
X100634500Y-98787666D01*
X100601166Y-98921000D01*
X100567833Y-98987666D01*
X100501166Y-99054333D01*
X100401166Y-99087666D01*
X100334500Y-99087666D01*
X100234500Y-99054333D01*
X100201166Y-99021000D01*
X100201166Y-98787666D01*
X100334500Y-98787666D01*
X99901166Y-99087666D02*
X99901166Y-98387666D01*
X99634500Y-98387666D01*
X99567833Y-98421000D01*
X99534500Y-98454333D01*
X99501166Y-98521000D01*
X99501166Y-98621000D01*
X99534500Y-98687666D01*
X99567833Y-98721000D01*
X99634500Y-98754333D01*
X99901166Y-98754333D01*
X99201166Y-99087666D02*
X99201166Y-98387666D01*
X98734500Y-98387666D02*
X98601166Y-98387666D01*
X98534500Y-98421000D01*
X98467833Y-98487666D01*
X98434500Y-98621000D01*
X98434500Y-98854333D01*
X98467833Y-98987666D01*
X98534500Y-99054333D01*
X98601166Y-99087666D01*
X98734500Y-99087666D01*
X98801166Y-99054333D01*
X98867833Y-98987666D01*
X98901166Y-98854333D01*
X98901166Y-98621000D01*
X98867833Y-98487666D01*
X98801166Y-98421000D01*
X98734500Y-98387666D01*
X97834500Y-98621000D02*
X97834500Y-99087666D01*
X98001166Y-98354333D02*
X98167833Y-98854333D01*
X97734500Y-98854333D01*
X115170976Y-98370380D02*
X115504309Y-97894190D01*
X115742404Y-98370380D02*
X115742404Y-97370380D01*
X115361452Y-97370380D01*
X115266214Y-97418000D01*
X115218595Y-97465619D01*
X115170976Y-97560857D01*
X115170976Y-97703714D01*
X115218595Y-97798952D01*
X115266214Y-97846571D01*
X115361452Y-97894190D01*
X115742404Y-97894190D01*
X114313833Y-98370380D02*
X114313833Y-97846571D01*
X114361452Y-97751333D01*
X114456690Y-97703714D01*
X114647166Y-97703714D01*
X114742404Y-97751333D01*
X114313833Y-98322761D02*
X114409071Y-98370380D01*
X114647166Y-98370380D01*
X114742404Y-98322761D01*
X114790023Y-98227523D01*
X114790023Y-98132285D01*
X114742404Y-98037047D01*
X114647166Y-97989428D01*
X114409071Y-97989428D01*
X114313833Y-97941809D01*
X113885261Y-98322761D02*
X113790023Y-98370380D01*
X113599547Y-98370380D01*
X113504309Y-98322761D01*
X113456690Y-98227523D01*
X113456690Y-98179904D01*
X113504309Y-98084666D01*
X113599547Y-98037047D01*
X113742404Y-98037047D01*
X113837642Y-97989428D01*
X113885261Y-97894190D01*
X113885261Y-97846571D01*
X113837642Y-97751333D01*
X113742404Y-97703714D01*
X113599547Y-97703714D01*
X113504309Y-97751333D01*
X113028119Y-97703714D02*
X113028119Y-98703714D01*
X113028119Y-97751333D02*
X112932880Y-97703714D01*
X112742404Y-97703714D01*
X112647166Y-97751333D01*
X112599547Y-97798952D01*
X112551928Y-97894190D01*
X112551928Y-98179904D01*
X112599547Y-98275142D01*
X112647166Y-98322761D01*
X112742404Y-98370380D01*
X112932880Y-98370380D01*
X113028119Y-98322761D01*
X112123357Y-98370380D02*
X112123357Y-97370380D01*
X112123357Y-97751333D02*
X112028119Y-97703714D01*
X111837642Y-97703714D01*
X111742404Y-97751333D01*
X111694785Y-97798952D01*
X111647166Y-97894190D01*
X111647166Y-98179904D01*
X111694785Y-98275142D01*
X111742404Y-98322761D01*
X111837642Y-98370380D01*
X112028119Y-98370380D01*
X112123357Y-98322761D01*
X110837642Y-98322761D02*
X110932880Y-98370380D01*
X111123357Y-98370380D01*
X111218595Y-98322761D01*
X111266214Y-98227523D01*
X111266214Y-97846571D01*
X111218595Y-97751333D01*
X111123357Y-97703714D01*
X110932880Y-97703714D01*
X110837642Y-97751333D01*
X110790023Y-97846571D01*
X110790023Y-97941809D01*
X111266214Y-98037047D01*
X110361452Y-98370380D02*
X110361452Y-97703714D01*
X110361452Y-97894190D02*
X110313833Y-97798952D01*
X110266214Y-97751333D01*
X110170976Y-97703714D01*
X110075738Y-97703714D01*
X109742404Y-98370380D02*
X109742404Y-97703714D01*
X109742404Y-97894190D02*
X109694785Y-97798952D01*
X109647166Y-97751333D01*
X109551928Y-97703714D01*
X109456690Y-97703714D01*
X109218595Y-97703714D02*
X108980500Y-98370380D01*
X108742404Y-97703714D02*
X108980500Y-98370380D01*
X109075738Y-98608476D01*
X109123357Y-98656095D01*
X109218595Y-98703714D01*
X107599547Y-98370380D02*
X107599547Y-97370380D01*
X107218595Y-97370380D01*
X107123357Y-97418000D01*
X107075738Y-97465619D01*
X107028119Y-97560857D01*
X107028119Y-97703714D01*
X107075738Y-97798952D01*
X107123357Y-97846571D01*
X107218595Y-97894190D01*
X107599547Y-97894190D01*
X106599547Y-98370380D02*
X106599547Y-97703714D01*
X106599547Y-97370380D02*
X106647166Y-97418000D01*
X106599547Y-97465619D01*
X106551928Y-97418000D01*
X106599547Y-97370380D01*
X106599547Y-97465619D01*
X115409071Y-99496571D02*
X115742404Y-99496571D01*
X115742404Y-100020380D02*
X115742404Y-99020380D01*
X115266214Y-99020380D01*
X114456690Y-99353714D02*
X114456690Y-100020380D01*
X114885261Y-99353714D02*
X114885261Y-99877523D01*
X114837642Y-99972761D01*
X114742404Y-100020380D01*
X114599547Y-100020380D01*
X114504309Y-99972761D01*
X114456690Y-99925142D01*
X113837642Y-100020380D02*
X113932880Y-99972761D01*
X113980500Y-99877523D01*
X113980500Y-99020380D01*
X113313833Y-100020380D02*
X113409071Y-99972761D01*
X113456690Y-99877523D01*
X113456690Y-99020380D01*
X112218595Y-99972761D02*
X112075738Y-100020380D01*
X111837642Y-100020380D01*
X111742404Y-99972761D01*
X111694785Y-99925142D01*
X111647166Y-99829904D01*
X111647166Y-99734666D01*
X111694785Y-99639428D01*
X111742404Y-99591809D01*
X111837642Y-99544190D01*
X112028119Y-99496571D01*
X112123357Y-99448952D01*
X112170976Y-99401333D01*
X112218595Y-99306095D01*
X112218595Y-99210857D01*
X112170976Y-99115619D01*
X112123357Y-99068000D01*
X112028119Y-99020380D01*
X111790023Y-99020380D01*
X111647166Y-99068000D01*
X111361452Y-99353714D02*
X110980500Y-99353714D01*
X111218595Y-99020380D02*
X111218595Y-99877523D01*
X111170976Y-99972761D01*
X111075738Y-100020380D01*
X110980500Y-100020380D01*
X110218595Y-100020380D02*
X110218595Y-99496571D01*
X110266214Y-99401333D01*
X110361452Y-99353714D01*
X110551928Y-99353714D01*
X110647166Y-99401333D01*
X110218595Y-99972761D02*
X110313833Y-100020380D01*
X110551928Y-100020380D01*
X110647166Y-99972761D01*
X110694785Y-99877523D01*
X110694785Y-99782285D01*
X110647166Y-99687047D01*
X110551928Y-99639428D01*
X110313833Y-99639428D01*
X110218595Y-99591809D01*
X109313833Y-99972761D02*
X109409071Y-100020380D01*
X109599547Y-100020380D01*
X109694785Y-99972761D01*
X109742404Y-99925142D01*
X109790023Y-99829904D01*
X109790023Y-99544190D01*
X109742404Y-99448952D01*
X109694785Y-99401333D01*
X109599547Y-99353714D01*
X109409071Y-99353714D01*
X109313833Y-99401333D01*
X108885261Y-100020380D02*
X108885261Y-99020380D01*
X108790023Y-99639428D02*
X108504309Y-100020380D01*
X108504309Y-99353714D02*
X108885261Y-99734666D01*
X115837642Y-101003714D02*
X115599547Y-101670380D01*
X115361452Y-101003714D01*
X114456690Y-101670380D02*
X115028119Y-101670380D01*
X114742404Y-101670380D02*
X114742404Y-100670380D01*
X114837642Y-100813238D01*
X114932880Y-100908476D01*
X115028119Y-100956095D01*
D12*
%TO.C,REF\u002A\u002A*%
G36*
X99428122Y-103602776D02*
G01*
X99322388Y-103603355D01*
X99245868Y-103604922D01*
X99193628Y-103607972D01*
X99160737Y-103612996D01*
X99142263Y-103620489D01*
X99133273Y-103630944D01*
X99128837Y-103644853D01*
X99128406Y-103646654D01*
X99121667Y-103679145D01*
X99109192Y-103743252D01*
X99092281Y-103832151D01*
X99072229Y-103939019D01*
X99050336Y-104057033D01*
X99049571Y-104061178D01*
X99027641Y-104176831D01*
X99007123Y-104279014D01*
X98989341Y-104361598D01*
X98975619Y-104418456D01*
X98967282Y-104443458D01*
X98966884Y-104443901D01*
X98942323Y-104456110D01*
X98891685Y-104476456D01*
X98825905Y-104500545D01*
X98825539Y-104500674D01*
X98742683Y-104531818D01*
X98645000Y-104571491D01*
X98552923Y-104611381D01*
X98548566Y-104613353D01*
X98398593Y-104681420D01*
X98066502Y-104454639D01*
X97964626Y-104385504D01*
X97872343Y-104323697D01*
X97794997Y-104272733D01*
X97737936Y-104236127D01*
X97706505Y-104217394D01*
X97703521Y-104216004D01*
X97680679Y-104222190D01*
X97638018Y-104252035D01*
X97573872Y-104306947D01*
X97486579Y-104388334D01*
X97397465Y-104474922D01*
X97311559Y-104560247D01*
X97234673Y-104638108D01*
X97171436Y-104703697D01*
X97126477Y-104752205D01*
X97104424Y-104778825D01*
X97103604Y-104780195D01*
X97101166Y-104798463D01*
X97110350Y-104828295D01*
X97133426Y-104873721D01*
X97172663Y-104938770D01*
X97230330Y-105027470D01*
X97307205Y-105141657D01*
X97375430Y-105242162D01*
X97436418Y-105332303D01*
X97486644Y-105406849D01*
X97522584Y-105460565D01*
X97540713Y-105488218D01*
X97541854Y-105490095D01*
X97539641Y-105516590D01*
X97522862Y-105568086D01*
X97494858Y-105634851D01*
X97484878Y-105656172D01*
X97441328Y-105751159D01*
X97394866Y-105858937D01*
X97357123Y-105952192D01*
X97329927Y-106021406D01*
X97308325Y-106074006D01*
X97295842Y-106101497D01*
X97294291Y-106103616D01*
X97271332Y-106107124D01*
X97217214Y-106116738D01*
X97139132Y-106131089D01*
X97044281Y-106148807D01*
X96939857Y-106168525D01*
X96833056Y-106188874D01*
X96731074Y-106208486D01*
X96641106Y-106225991D01*
X96570347Y-106240022D01*
X96525994Y-106249209D01*
X96515115Y-106251807D01*
X96503878Y-106258218D01*
X96495395Y-106272697D01*
X96489286Y-106300133D01*
X96485168Y-106345411D01*
X96482659Y-106413420D01*
X96481379Y-106509047D01*
X96480946Y-106637180D01*
X96480923Y-106689701D01*
X96480923Y-107116845D01*
X96583500Y-107137091D01*
X96640569Y-107148070D01*
X96725731Y-107164095D01*
X96828628Y-107183233D01*
X96938904Y-107203551D01*
X96969385Y-107209132D01*
X97071145Y-107228917D01*
X97159795Y-107248373D01*
X97227892Y-107265697D01*
X97267996Y-107279088D01*
X97274677Y-107283079D01*
X97291081Y-107311342D01*
X97314601Y-107366109D01*
X97340684Y-107436588D01*
X97345858Y-107451769D01*
X97380044Y-107545896D01*
X97422477Y-107652101D01*
X97464003Y-107747473D01*
X97464208Y-107747916D01*
X97533360Y-107897525D01*
X97078488Y-108566617D01*
X97370500Y-108859116D01*
X97458820Y-108946170D01*
X97539375Y-109022909D01*
X97607640Y-109085237D01*
X97659092Y-109129056D01*
X97689206Y-109150270D01*
X97693526Y-109151616D01*
X97718889Y-109141016D01*
X97770642Y-109111547D01*
X97843132Y-109066705D01*
X97930706Y-109009984D01*
X98025388Y-108946462D01*
X98121484Y-108881668D01*
X98207163Y-108825287D01*
X98276984Y-108780788D01*
X98325506Y-108751639D01*
X98347218Y-108741308D01*
X98373707Y-108750050D01*
X98423938Y-108773087D01*
X98487549Y-108805631D01*
X98494292Y-108809249D01*
X98579954Y-108852210D01*
X98638694Y-108873279D01*
X98675228Y-108873503D01*
X98694269Y-108853928D01*
X98694380Y-108853654D01*
X98703898Y-108830472D01*
X98726597Y-108775441D01*
X98760718Y-108692822D01*
X98804500Y-108586872D01*
X98856184Y-108461852D01*
X98914008Y-108322020D01*
X98970009Y-108186637D01*
X99031553Y-108037234D01*
X99088061Y-107898832D01*
X99137839Y-107775673D01*
X99179194Y-107672002D01*
X99210432Y-107592059D01*
X99229859Y-107540088D01*
X99235846Y-107520692D01*
X99220832Y-107498443D01*
X99181561Y-107462982D01*
X99129193Y-107423887D01*
X98980059Y-107300245D01*
X98863489Y-107158522D01*
X98780882Y-107001704D01*
X98733634Y-106832775D01*
X98723143Y-106654722D01*
X98730769Y-106572539D01*
X98772318Y-106402031D01*
X98843877Y-106251459D01*
X98941005Y-106122309D01*
X99059266Y-106016064D01*
X99194220Y-105934210D01*
X99341429Y-105878232D01*
X99496456Y-105849615D01*
X99654861Y-105849844D01*
X99812206Y-105880405D01*
X99964054Y-105942782D01*
X100105965Y-106038460D01*
X100165197Y-106092572D01*
X100278797Y-106231520D01*
X100357894Y-106383361D01*
X100403014Y-106543667D01*
X100414684Y-106708012D01*
X100393431Y-106871971D01*
X100339780Y-107031118D01*
X100254260Y-107181025D01*
X100137395Y-107317267D01*
X100006807Y-107423887D01*
X99952412Y-107464642D01*
X99913986Y-107499718D01*
X99900154Y-107520726D01*
X99907397Y-107543635D01*
X99927995Y-107598365D01*
X99960254Y-107680672D01*
X100002479Y-107786315D01*
X100052977Y-107911050D01*
X100110052Y-108050636D01*
X100166146Y-108186670D01*
X100228033Y-108336201D01*
X100285356Y-108474767D01*
X100336356Y-108598107D01*
X100379273Y-108701964D01*
X100412347Y-108782080D01*
X100433819Y-108834195D01*
X100441775Y-108853654D01*
X100460571Y-108873423D01*
X100496926Y-108873365D01*
X100555521Y-108852441D01*
X100641032Y-108809613D01*
X100641708Y-108809249D01*
X100706093Y-108776012D01*
X100758139Y-108751802D01*
X100787488Y-108741404D01*
X100788783Y-108741308D01*
X100810876Y-108751855D01*
X100859652Y-108781184D01*
X100929669Y-108825827D01*
X101015486Y-108882314D01*
X101110612Y-108946462D01*
X101207460Y-109011411D01*
X101294747Y-109067896D01*
X101366819Y-109112421D01*
X101418023Y-109141490D01*
X101442474Y-109151616D01*
X101464990Y-109138307D01*
X101510258Y-109101112D01*
X101573756Y-109044128D01*
X101650961Y-108971449D01*
X101737349Y-108887171D01*
X101765601Y-108859016D01*
X102057713Y-108566416D01*
X101835369Y-108240104D01*
X101767798Y-108139897D01*
X101708493Y-108049963D01*
X101660783Y-107975510D01*
X101627993Y-107921751D01*
X101613452Y-107893894D01*
X101613026Y-107891912D01*
X101620692Y-107865655D01*
X101641311Y-107812837D01*
X101671315Y-107742310D01*
X101692375Y-107695093D01*
X101731752Y-107604694D01*
X101768835Y-107513366D01*
X101797585Y-107436200D01*
X101805395Y-107412692D01*
X101827583Y-107349916D01*
X101849273Y-107301411D01*
X101861187Y-107283079D01*
X101887477Y-107271859D01*
X101944858Y-107255954D01*
X102025882Y-107237167D01*
X102123105Y-107217299D01*
X102166615Y-107209132D01*
X102277104Y-107188829D01*
X102383084Y-107169170D01*
X102474199Y-107152088D01*
X102540092Y-107139518D01*
X102552500Y-107137091D01*
X102655077Y-107116845D01*
X102655077Y-106689701D01*
X102654847Y-106549246D01*
X102653901Y-106442979D01*
X102651859Y-106366013D01*
X102648338Y-106313460D01*
X102642957Y-106280433D01*
X102635334Y-106262045D01*
X102625088Y-106253408D01*
X102620885Y-106251807D01*
X102595530Y-106246127D01*
X102539516Y-106234795D01*
X102460036Y-106219179D01*
X102364288Y-106200647D01*
X102259467Y-106180569D01*
X102152768Y-106160312D01*
X102051387Y-106141246D01*
X101962521Y-106124739D01*
X101893363Y-106112159D01*
X101851111Y-106104875D01*
X101841710Y-106103616D01*
X101833193Y-106086763D01*
X101814340Y-106041870D01*
X101788676Y-105977430D01*
X101778877Y-105952192D01*
X101739352Y-105854686D01*
X101692808Y-105746959D01*
X101651123Y-105656172D01*
X101620450Y-105586753D01*
X101600044Y-105529710D01*
X101593232Y-105494777D01*
X101594318Y-105490095D01*
X101608715Y-105467991D01*
X101641588Y-105418831D01*
X101689410Y-105347848D01*
X101748652Y-105260278D01*
X101815785Y-105161357D01*
X101829059Y-105141830D01*
X101906954Y-105026140D01*
X101964213Y-104938044D01*
X102003119Y-104873486D01*
X102025956Y-104828411D01*
X102035006Y-104798763D01*
X102032552Y-104780485D01*
X102032489Y-104780369D01*
X102013173Y-104756361D01*
X101970449Y-104709947D01*
X101908949Y-104645937D01*
X101833302Y-104569145D01*
X101748139Y-104484382D01*
X101738535Y-104474922D01*
X101631210Y-104370989D01*
X101548385Y-104294675D01*
X101488395Y-104244571D01*
X101449577Y-104219270D01*
X101432480Y-104216004D01*
X101407527Y-104230250D01*
X101355745Y-104263156D01*
X101282480Y-104311208D01*
X101193080Y-104370890D01*
X101092889Y-104438688D01*
X101069499Y-104454639D01*
X100737407Y-104681420D01*
X100587435Y-104613353D01*
X100496230Y-104573685D01*
X100398331Y-104533791D01*
X100314169Y-104501983D01*
X100310462Y-104500674D01*
X100244631Y-104476576D01*
X100193884Y-104456200D01*
X100169158Y-104443936D01*
X100169116Y-104443901D01*
X100161271Y-104421734D01*
X100147934Y-104367217D01*
X100130430Y-104286480D01*
X100110083Y-104185650D01*
X100088218Y-104070856D01*
X100086429Y-104061178D01*
X100064496Y-103942904D01*
X100044360Y-103835542D01*
X100027320Y-103745917D01*
X100014672Y-103680851D01*
X100007716Y-103647168D01*
X100007594Y-103646654D01*
X100003361Y-103632325D01*
X99995129Y-103621507D01*
X99977967Y-103613706D01*
X99946942Y-103608429D01*
X99897122Y-103605182D01*
X99823576Y-103603472D01*
X99721371Y-103602807D01*
X99585575Y-103602693D01*
X99568000Y-103602692D01*
X99428122Y-103602776D01*
G37*
X99428122Y-103602776D02*
X99322388Y-103603355D01*
X99245868Y-103604922D01*
X99193628Y-103607972D01*
X99160737Y-103612996D01*
X99142263Y-103620489D01*
X99133273Y-103630944D01*
X99128837Y-103644853D01*
X99128406Y-103646654D01*
X99121667Y-103679145D01*
X99109192Y-103743252D01*
X99092281Y-103832151D01*
X99072229Y-103939019D01*
X99050336Y-104057033D01*
X99049571Y-104061178D01*
X99027641Y-104176831D01*
X99007123Y-104279014D01*
X98989341Y-104361598D01*
X98975619Y-104418456D01*
X98967282Y-104443458D01*
X98966884Y-104443901D01*
X98942323Y-104456110D01*
X98891685Y-104476456D01*
X98825905Y-104500545D01*
X98825539Y-104500674D01*
X98742683Y-104531818D01*
X98645000Y-104571491D01*
X98552923Y-104611381D01*
X98548566Y-104613353D01*
X98398593Y-104681420D01*
X98066502Y-104454639D01*
X97964626Y-104385504D01*
X97872343Y-104323697D01*
X97794997Y-104272733D01*
X97737936Y-104236127D01*
X97706505Y-104217394D01*
X97703521Y-104216004D01*
X97680679Y-104222190D01*
X97638018Y-104252035D01*
X97573872Y-104306947D01*
X97486579Y-104388334D01*
X97397465Y-104474922D01*
X97311559Y-104560247D01*
X97234673Y-104638108D01*
X97171436Y-104703697D01*
X97126477Y-104752205D01*
X97104424Y-104778825D01*
X97103604Y-104780195D01*
X97101166Y-104798463D01*
X97110350Y-104828295D01*
X97133426Y-104873721D01*
X97172663Y-104938770D01*
X97230330Y-105027470D01*
X97307205Y-105141657D01*
X97375430Y-105242162D01*
X97436418Y-105332303D01*
X97486644Y-105406849D01*
X97522584Y-105460565D01*
X97540713Y-105488218D01*
X97541854Y-105490095D01*
X97539641Y-105516590D01*
X97522862Y-105568086D01*
X97494858Y-105634851D01*
X97484878Y-105656172D01*
X97441328Y-105751159D01*
X97394866Y-105858937D01*
X97357123Y-105952192D01*
X97329927Y-106021406D01*
X97308325Y-106074006D01*
X97295842Y-106101497D01*
X97294291Y-106103616D01*
X97271332Y-106107124D01*
X97217214Y-106116738D01*
X97139132Y-106131089D01*
X97044281Y-106148807D01*
X96939857Y-106168525D01*
X96833056Y-106188874D01*
X96731074Y-106208486D01*
X96641106Y-106225991D01*
X96570347Y-106240022D01*
X96525994Y-106249209D01*
X96515115Y-106251807D01*
X96503878Y-106258218D01*
X96495395Y-106272697D01*
X96489286Y-106300133D01*
X96485168Y-106345411D01*
X96482659Y-106413420D01*
X96481379Y-106509047D01*
X96480946Y-106637180D01*
X96480923Y-106689701D01*
X96480923Y-107116845D01*
X96583500Y-107137091D01*
X96640569Y-107148070D01*
X96725731Y-107164095D01*
X96828628Y-107183233D01*
X96938904Y-107203551D01*
X96969385Y-107209132D01*
X97071145Y-107228917D01*
X97159795Y-107248373D01*
X97227892Y-107265697D01*
X97267996Y-107279088D01*
X97274677Y-107283079D01*
X97291081Y-107311342D01*
X97314601Y-107366109D01*
X97340684Y-107436588D01*
X97345858Y-107451769D01*
X97380044Y-107545896D01*
X97422477Y-107652101D01*
X97464003Y-107747473D01*
X97464208Y-107747916D01*
X97533360Y-107897525D01*
X97078488Y-108566617D01*
X97370500Y-108859116D01*
X97458820Y-108946170D01*
X97539375Y-109022909D01*
X97607640Y-109085237D01*
X97659092Y-109129056D01*
X97689206Y-109150270D01*
X97693526Y-109151616D01*
X97718889Y-109141016D01*
X97770642Y-109111547D01*
X97843132Y-109066705D01*
X97930706Y-109009984D01*
X98025388Y-108946462D01*
X98121484Y-108881668D01*
X98207163Y-108825287D01*
X98276984Y-108780788D01*
X98325506Y-108751639D01*
X98347218Y-108741308D01*
X98373707Y-108750050D01*
X98423938Y-108773087D01*
X98487549Y-108805631D01*
X98494292Y-108809249D01*
X98579954Y-108852210D01*
X98638694Y-108873279D01*
X98675228Y-108873503D01*
X98694269Y-108853928D01*
X98694380Y-108853654D01*
X98703898Y-108830472D01*
X98726597Y-108775441D01*
X98760718Y-108692822D01*
X98804500Y-108586872D01*
X98856184Y-108461852D01*
X98914008Y-108322020D01*
X98970009Y-108186637D01*
X99031553Y-108037234D01*
X99088061Y-107898832D01*
X99137839Y-107775673D01*
X99179194Y-107672002D01*
X99210432Y-107592059D01*
X99229859Y-107540088D01*
X99235846Y-107520692D01*
X99220832Y-107498443D01*
X99181561Y-107462982D01*
X99129193Y-107423887D01*
X98980059Y-107300245D01*
X98863489Y-107158522D01*
X98780882Y-107001704D01*
X98733634Y-106832775D01*
X98723143Y-106654722D01*
X98730769Y-106572539D01*
X98772318Y-106402031D01*
X98843877Y-106251459D01*
X98941005Y-106122309D01*
X99059266Y-106016064D01*
X99194220Y-105934210D01*
X99341429Y-105878232D01*
X99496456Y-105849615D01*
X99654861Y-105849844D01*
X99812206Y-105880405D01*
X99964054Y-105942782D01*
X100105965Y-106038460D01*
X100165197Y-106092572D01*
X100278797Y-106231520D01*
X100357894Y-106383361D01*
X100403014Y-106543667D01*
X100414684Y-106708012D01*
X100393431Y-106871971D01*
X100339780Y-107031118D01*
X100254260Y-107181025D01*
X100137395Y-107317267D01*
X100006807Y-107423887D01*
X99952412Y-107464642D01*
X99913986Y-107499718D01*
X99900154Y-107520726D01*
X99907397Y-107543635D01*
X99927995Y-107598365D01*
X99960254Y-107680672D01*
X100002479Y-107786315D01*
X100052977Y-107911050D01*
X100110052Y-108050636D01*
X100166146Y-108186670D01*
X100228033Y-108336201D01*
X100285356Y-108474767D01*
X100336356Y-108598107D01*
X100379273Y-108701964D01*
X100412347Y-108782080D01*
X100433819Y-108834195D01*
X100441775Y-108853654D01*
X100460571Y-108873423D01*
X100496926Y-108873365D01*
X100555521Y-108852441D01*
X100641032Y-108809613D01*
X100641708Y-108809249D01*
X100706093Y-108776012D01*
X100758139Y-108751802D01*
X100787488Y-108741404D01*
X100788783Y-108741308D01*
X100810876Y-108751855D01*
X100859652Y-108781184D01*
X100929669Y-108825827D01*
X101015486Y-108882314D01*
X101110612Y-108946462D01*
X101207460Y-109011411D01*
X101294747Y-109067896D01*
X101366819Y-109112421D01*
X101418023Y-109141490D01*
X101442474Y-109151616D01*
X101464990Y-109138307D01*
X101510258Y-109101112D01*
X101573756Y-109044128D01*
X101650961Y-108971449D01*
X101737349Y-108887171D01*
X101765601Y-108859016D01*
X102057713Y-108566416D01*
X101835369Y-108240104D01*
X101767798Y-108139897D01*
X101708493Y-108049963D01*
X101660783Y-107975510D01*
X101627993Y-107921751D01*
X101613452Y-107893894D01*
X101613026Y-107891912D01*
X101620692Y-107865655D01*
X101641311Y-107812837D01*
X101671315Y-107742310D01*
X101692375Y-107695093D01*
X101731752Y-107604694D01*
X101768835Y-107513366D01*
X101797585Y-107436200D01*
X101805395Y-107412692D01*
X101827583Y-107349916D01*
X101849273Y-107301411D01*
X101861187Y-107283079D01*
X101887477Y-107271859D01*
X101944858Y-107255954D01*
X102025882Y-107237167D01*
X102123105Y-107217299D01*
X102166615Y-107209132D01*
X102277104Y-107188829D01*
X102383084Y-107169170D01*
X102474199Y-107152088D01*
X102540092Y-107139518D01*
X102552500Y-107137091D01*
X102655077Y-107116845D01*
X102655077Y-106689701D01*
X102654847Y-106549246D01*
X102653901Y-106442979D01*
X102651859Y-106366013D01*
X102648338Y-106313460D01*
X102642957Y-106280433D01*
X102635334Y-106262045D01*
X102625088Y-106253408D01*
X102620885Y-106251807D01*
X102595530Y-106246127D01*
X102539516Y-106234795D01*
X102460036Y-106219179D01*
X102364288Y-106200647D01*
X102259467Y-106180569D01*
X102152768Y-106160312D01*
X102051387Y-106141246D01*
X101962521Y-106124739D01*
X101893363Y-106112159D01*
X101851111Y-106104875D01*
X101841710Y-106103616D01*
X101833193Y-106086763D01*
X101814340Y-106041870D01*
X101788676Y-105977430D01*
X101778877Y-105952192D01*
X101739352Y-105854686D01*
X101692808Y-105746959D01*
X101651123Y-105656172D01*
X101620450Y-105586753D01*
X101600044Y-105529710D01*
X101593232Y-105494777D01*
X101594318Y-105490095D01*
X101608715Y-105467991D01*
X101641588Y-105418831D01*
X101689410Y-105347848D01*
X101748652Y-105260278D01*
X101815785Y-105161357D01*
X101829059Y-105141830D01*
X101906954Y-105026140D01*
X101964213Y-104938044D01*
X102003119Y-104873486D01*
X102025956Y-104828411D01*
X102035006Y-104798763D01*
X102032552Y-104780485D01*
X102032489Y-104780369D01*
X102013173Y-104756361D01*
X101970449Y-104709947D01*
X101908949Y-104645937D01*
X101833302Y-104569145D01*
X101748139Y-104484382D01*
X101738535Y-104474922D01*
X101631210Y-104370989D01*
X101548385Y-104294675D01*
X101488395Y-104244571D01*
X101449577Y-104219270D01*
X101432480Y-104216004D01*
X101407527Y-104230250D01*
X101355745Y-104263156D01*
X101282480Y-104311208D01*
X101193080Y-104370890D01*
X101092889Y-104438688D01*
X101069499Y-104454639D01*
X100737407Y-104681420D01*
X100587435Y-104613353D01*
X100496230Y-104573685D01*
X100398331Y-104533791D01*
X100314169Y-104501983D01*
X100310462Y-104500674D01*
X100244631Y-104476576D01*
X100193884Y-104456200D01*
X100169158Y-104443936D01*
X100169116Y-104443901D01*
X100161271Y-104421734D01*
X100147934Y-104367217D01*
X100130430Y-104286480D01*
X100110083Y-104185650D01*
X100088218Y-104070856D01*
X100086429Y-104061178D01*
X100064496Y-103942904D01*
X100044360Y-103835542D01*
X100027320Y-103745917D01*
X100014672Y-103680851D01*
X100007716Y-103647168D01*
X100007594Y-103646654D01*
X100003361Y-103632325D01*
X99995129Y-103621507D01*
X99977967Y-103613706D01*
X99946942Y-103608429D01*
X99897122Y-103605182D01*
X99823576Y-103603472D01*
X99721371Y-103602807D01*
X99585575Y-103602693D01*
X99568000Y-103602692D01*
X99428122Y-103602776D01*
G36*
X95322776Y-109962838D02*
G01*
X95245472Y-110013361D01*
X95208186Y-110058590D01*
X95178647Y-110140663D01*
X95176301Y-110205607D01*
X95181615Y-110292445D01*
X95381885Y-110380103D01*
X95479261Y-110424887D01*
X95542887Y-110460913D01*
X95575971Y-110492117D01*
X95581720Y-110522436D01*
X95563342Y-110555805D01*
X95543077Y-110577923D01*
X95484111Y-110613393D01*
X95419976Y-110615879D01*
X95361074Y-110588235D01*
X95317803Y-110533320D01*
X95310064Y-110513928D01*
X95272994Y-110453364D01*
X95230346Y-110427552D01*
X95171846Y-110405471D01*
X95171846Y-110489184D01*
X95177018Y-110546150D01*
X95197277Y-110594189D01*
X95239738Y-110649346D01*
X95246049Y-110656514D01*
X95293280Y-110705585D01*
X95333879Y-110731920D01*
X95384672Y-110744035D01*
X95426780Y-110748003D01*
X95502098Y-110748991D01*
X95555714Y-110736466D01*
X95589162Y-110717869D01*
X95641732Y-110676975D01*
X95678121Y-110632748D01*
X95701150Y-110577126D01*
X95713641Y-110502047D01*
X95718413Y-110399449D01*
X95718794Y-110347376D01*
X95717499Y-110284948D01*
X95599529Y-110284948D01*
X95598161Y-110318438D01*
X95594751Y-110323923D01*
X95572247Y-110316472D01*
X95523818Y-110296753D01*
X95459092Y-110268718D01*
X95445557Y-110262692D01*
X95363756Y-110221096D01*
X95318688Y-110184538D01*
X95308783Y-110150296D01*
X95332474Y-110115648D01*
X95352040Y-110100339D01*
X95422640Y-110069721D01*
X95488720Y-110074780D01*
X95544041Y-110112151D01*
X95582364Y-110178473D01*
X95594651Y-110231116D01*
X95599529Y-110284948D01*
X95717499Y-110284948D01*
X95716270Y-110225720D01*
X95706968Y-110135710D01*
X95688540Y-110070167D01*
X95658640Y-110021912D01*
X95614920Y-109983767D01*
X95595859Y-109971440D01*
X95509274Y-109939336D01*
X95414478Y-109937316D01*
X95322776Y-109962838D01*
G37*
X95322776Y-109962838D02*
X95245472Y-110013361D01*
X95208186Y-110058590D01*
X95178647Y-110140663D01*
X95176301Y-110205607D01*
X95181615Y-110292445D01*
X95381885Y-110380103D01*
X95479261Y-110424887D01*
X95542887Y-110460913D01*
X95575971Y-110492117D01*
X95581720Y-110522436D01*
X95563342Y-110555805D01*
X95543077Y-110577923D01*
X95484111Y-110613393D01*
X95419976Y-110615879D01*
X95361074Y-110588235D01*
X95317803Y-110533320D01*
X95310064Y-110513928D01*
X95272994Y-110453364D01*
X95230346Y-110427552D01*
X95171846Y-110405471D01*
X95171846Y-110489184D01*
X95177018Y-110546150D01*
X95197277Y-110594189D01*
X95239738Y-110649346D01*
X95246049Y-110656514D01*
X95293280Y-110705585D01*
X95333879Y-110731920D01*
X95384672Y-110744035D01*
X95426780Y-110748003D01*
X95502098Y-110748991D01*
X95555714Y-110736466D01*
X95589162Y-110717869D01*
X95641732Y-110676975D01*
X95678121Y-110632748D01*
X95701150Y-110577126D01*
X95713641Y-110502047D01*
X95718413Y-110399449D01*
X95718794Y-110347376D01*
X95717499Y-110284948D01*
X95599529Y-110284948D01*
X95598161Y-110318438D01*
X95594751Y-110323923D01*
X95572247Y-110316472D01*
X95523818Y-110296753D01*
X95459092Y-110268718D01*
X95445557Y-110262692D01*
X95363756Y-110221096D01*
X95318688Y-110184538D01*
X95308783Y-110150296D01*
X95332474Y-110115648D01*
X95352040Y-110100339D01*
X95422640Y-110069721D01*
X95488720Y-110074780D01*
X95544041Y-110112151D01*
X95582364Y-110178473D01*
X95594651Y-110231116D01*
X95599529Y-110284948D01*
X95717499Y-110284948D01*
X95716270Y-110225720D01*
X95706968Y-110135710D01*
X95688540Y-110070167D01*
X95658640Y-110021912D01*
X95614920Y-109983767D01*
X95595859Y-109971440D01*
X95509274Y-109939336D01*
X95414478Y-109937316D01*
X95322776Y-109962838D01*
G36*
X95997193Y-109951782D02*
G01*
X95973839Y-109961988D01*
X95918098Y-110006134D01*
X95870431Y-110069967D01*
X95840952Y-110138087D01*
X95836154Y-110171670D01*
X95852240Y-110218556D01*
X95887525Y-110243365D01*
X95925356Y-110258387D01*
X95942679Y-110261155D01*
X95951114Y-110241066D01*
X95967770Y-110197351D01*
X95975077Y-110177598D01*
X96016052Y-110109271D01*
X96075378Y-110075191D01*
X96151448Y-110076239D01*
X96157082Y-110077581D01*
X96197695Y-110096836D01*
X96227552Y-110134375D01*
X96247945Y-110194809D01*
X96260164Y-110282751D01*
X96265500Y-110402813D01*
X96266000Y-110466698D01*
X96266248Y-110567403D01*
X96267874Y-110636054D01*
X96272199Y-110679673D01*
X96280546Y-110705282D01*
X96294235Y-110719903D01*
X96314589Y-110730558D01*
X96315766Y-110731095D01*
X96354962Y-110747667D01*
X96374381Y-110753769D01*
X96377365Y-110735319D01*
X96379919Y-110684323D01*
X96381860Y-110607308D01*
X96383003Y-110510805D01*
X96383231Y-110440184D01*
X96382068Y-110303525D01*
X96377521Y-110199851D01*
X96368001Y-110123108D01*
X96351919Y-110067246D01*
X96327687Y-110026212D01*
X96293714Y-109993954D01*
X96260167Y-109971440D01*
X96179501Y-109941476D01*
X96085619Y-109934718D01*
X95997193Y-109951782D01*
G37*
X95997193Y-109951782D02*
X95973839Y-109961988D01*
X95918098Y-110006134D01*
X95870431Y-110069967D01*
X95840952Y-110138087D01*
X95836154Y-110171670D01*
X95852240Y-110218556D01*
X95887525Y-110243365D01*
X95925356Y-110258387D01*
X95942679Y-110261155D01*
X95951114Y-110241066D01*
X95967770Y-110197351D01*
X95975077Y-110177598D01*
X96016052Y-110109271D01*
X96075378Y-110075191D01*
X96151448Y-110076239D01*
X96157082Y-110077581D01*
X96197695Y-110096836D01*
X96227552Y-110134375D01*
X96247945Y-110194809D01*
X96260164Y-110282751D01*
X96265500Y-110402813D01*
X96266000Y-110466698D01*
X96266248Y-110567403D01*
X96267874Y-110636054D01*
X96272199Y-110679673D01*
X96280546Y-110705282D01*
X96294235Y-110719903D01*
X96314589Y-110730558D01*
X96315766Y-110731095D01*
X96354962Y-110747667D01*
X96374381Y-110753769D01*
X96377365Y-110735319D01*
X96379919Y-110684323D01*
X96381860Y-110607308D01*
X96383003Y-110510805D01*
X96383231Y-110440184D01*
X96382068Y-110303525D01*
X96377521Y-110199851D01*
X96368001Y-110123108D01*
X96351919Y-110067246D01*
X96327687Y-110026212D01*
X96293714Y-109993954D01*
X96260167Y-109971440D01*
X96179501Y-109941476D01*
X96085619Y-109934718D01*
X95997193Y-109951782D01*
G36*
X96680667Y-109948528D02*
G01*
X96624410Y-109974117D01*
X96580253Y-110005124D01*
X96547899Y-110039795D01*
X96525562Y-110084520D01*
X96511454Y-110145692D01*
X96503789Y-110229701D01*
X96500780Y-110342940D01*
X96500462Y-110417509D01*
X96500462Y-110708420D01*
X96550227Y-110731095D01*
X96589424Y-110747667D01*
X96608843Y-110753769D01*
X96612558Y-110735610D01*
X96615505Y-110686648D01*
X96617309Y-110615153D01*
X96617692Y-110558385D01*
X96619339Y-110476371D01*
X96623778Y-110411309D01*
X96630260Y-110371467D01*
X96635410Y-110363000D01*
X96670023Y-110371646D01*
X96724360Y-110393823D01*
X96787278Y-110423886D01*
X96847632Y-110456192D01*
X96894279Y-110485098D01*
X96916074Y-110504961D01*
X96916161Y-110505175D01*
X96914286Y-110541935D01*
X96897475Y-110577026D01*
X96867961Y-110605528D01*
X96824884Y-110615061D01*
X96788068Y-110613950D01*
X96735926Y-110613133D01*
X96708556Y-110625349D01*
X96692118Y-110657624D01*
X96690045Y-110663710D01*
X96682919Y-110709739D01*
X96701976Y-110737687D01*
X96751647Y-110751007D01*
X96805303Y-110753470D01*
X96901858Y-110735210D01*
X96951841Y-110709131D01*
X97013571Y-110647868D01*
X97046310Y-110572670D01*
X97049247Y-110493211D01*
X97021576Y-110419167D01*
X96979953Y-110372769D01*
X96938396Y-110346793D01*
X96873078Y-110313907D01*
X96796962Y-110280557D01*
X96784274Y-110275461D01*
X96700667Y-110238565D01*
X96652470Y-110206046D01*
X96636970Y-110173718D01*
X96651450Y-110137394D01*
X96676308Y-110109000D01*
X96735061Y-110074039D01*
X96799707Y-110071417D01*
X96858992Y-110098358D01*
X96901661Y-110152088D01*
X96907261Y-110165950D01*
X96939867Y-110216936D01*
X96987470Y-110254787D01*
X97047539Y-110285850D01*
X97047539Y-110197768D01*
X97044003Y-110143951D01*
X97028844Y-110101534D01*
X96995232Y-110056279D01*
X96962965Y-110021420D01*
X96912791Y-109972062D01*
X96873807Y-109945547D01*
X96831936Y-109934911D01*
X96784540Y-109933154D01*
X96680667Y-109948528D01*
G37*
X96680667Y-109948528D02*
X96624410Y-109974117D01*
X96580253Y-110005124D01*
X96547899Y-110039795D01*
X96525562Y-110084520D01*
X96511454Y-110145692D01*
X96503789Y-110229701D01*
X96500780Y-110342940D01*
X96500462Y-110417509D01*
X96500462Y-110708420D01*
X96550227Y-110731095D01*
X96589424Y-110747667D01*
X96608843Y-110753769D01*
X96612558Y-110735610D01*
X96615505Y-110686648D01*
X96617309Y-110615153D01*
X96617692Y-110558385D01*
X96619339Y-110476371D01*
X96623778Y-110411309D01*
X96630260Y-110371467D01*
X96635410Y-110363000D01*
X96670023Y-110371646D01*
X96724360Y-110393823D01*
X96787278Y-110423886D01*
X96847632Y-110456192D01*
X96894279Y-110485098D01*
X96916074Y-110504961D01*
X96916161Y-110505175D01*
X96914286Y-110541935D01*
X96897475Y-110577026D01*
X96867961Y-110605528D01*
X96824884Y-110615061D01*
X96788068Y-110613950D01*
X96735926Y-110613133D01*
X96708556Y-110625349D01*
X96692118Y-110657624D01*
X96690045Y-110663710D01*
X96682919Y-110709739D01*
X96701976Y-110737687D01*
X96751647Y-110751007D01*
X96805303Y-110753470D01*
X96901858Y-110735210D01*
X96951841Y-110709131D01*
X97013571Y-110647868D01*
X97046310Y-110572670D01*
X97049247Y-110493211D01*
X97021576Y-110419167D01*
X96979953Y-110372769D01*
X96938396Y-110346793D01*
X96873078Y-110313907D01*
X96796962Y-110280557D01*
X96784274Y-110275461D01*
X96700667Y-110238565D01*
X96652470Y-110206046D01*
X96636970Y-110173718D01*
X96651450Y-110137394D01*
X96676308Y-110109000D01*
X96735061Y-110074039D01*
X96799707Y-110071417D01*
X96858992Y-110098358D01*
X96901661Y-110152088D01*
X96907261Y-110165950D01*
X96939867Y-110216936D01*
X96987470Y-110254787D01*
X97047539Y-110285850D01*
X97047539Y-110197768D01*
X97044003Y-110143951D01*
X97028844Y-110101534D01*
X96995232Y-110056279D01*
X96962965Y-110021420D01*
X96912791Y-109972062D01*
X96873807Y-109945547D01*
X96831936Y-109934911D01*
X96784540Y-109933154D01*
X96680667Y-109948528D01*
G36*
X97172071Y-109951662D02*
G01*
X97169089Y-110003068D01*
X97166753Y-110081192D01*
X97165251Y-110179857D01*
X97164769Y-110283343D01*
X97164769Y-110633533D01*
X97226599Y-110695363D01*
X97269207Y-110733462D01*
X97306610Y-110748895D01*
X97357730Y-110747918D01*
X97378022Y-110745433D01*
X97441446Y-110738200D01*
X97493905Y-110734055D01*
X97506692Y-110733672D01*
X97549801Y-110736176D01*
X97611456Y-110742462D01*
X97635362Y-110745433D01*
X97694078Y-110750028D01*
X97733536Y-110740046D01*
X97772662Y-110709228D01*
X97786785Y-110695363D01*
X97848615Y-110633533D01*
X97848615Y-109978503D01*
X97798850Y-109955829D01*
X97755998Y-109939034D01*
X97730927Y-109933154D01*
X97724499Y-109951736D01*
X97718491Y-110003655D01*
X97713303Y-110083172D01*
X97709336Y-110184546D01*
X97707423Y-110270192D01*
X97702077Y-110607231D01*
X97655440Y-110613825D01*
X97613024Y-110609214D01*
X97592240Y-110594287D01*
X97586430Y-110566377D01*
X97581470Y-110506925D01*
X97577754Y-110423466D01*
X97575676Y-110323532D01*
X97575376Y-110272104D01*
X97575077Y-109976054D01*
X97513546Y-109954604D01*
X97469996Y-109940020D01*
X97446306Y-109933219D01*
X97445623Y-109933154D01*
X97443246Y-109951642D01*
X97440634Y-110002906D01*
X97438005Y-110080649D01*
X97435579Y-110178574D01*
X97433885Y-110270192D01*
X97428539Y-110607231D01*
X97311308Y-110607231D01*
X97305928Y-110299746D01*
X97300549Y-109992261D01*
X97243399Y-109962707D01*
X97201203Y-109942413D01*
X97176230Y-109933204D01*
X97175509Y-109933154D01*
X97172071Y-109951662D01*
G37*
X97172071Y-109951662D02*
X97169089Y-110003068D01*
X97166753Y-110081192D01*
X97165251Y-110179857D01*
X97164769Y-110283343D01*
X97164769Y-110633533D01*
X97226599Y-110695363D01*
X97269207Y-110733462D01*
X97306610Y-110748895D01*
X97357730Y-110747918D01*
X97378022Y-110745433D01*
X97441446Y-110738200D01*
X97493905Y-110734055D01*
X97506692Y-110733672D01*
X97549801Y-110736176D01*
X97611456Y-110742462D01*
X97635362Y-110745433D01*
X97694078Y-110750028D01*
X97733536Y-110740046D01*
X97772662Y-110709228D01*
X97786785Y-110695363D01*
X97848615Y-110633533D01*
X97848615Y-109978503D01*
X97798850Y-109955829D01*
X97755998Y-109939034D01*
X97730927Y-109933154D01*
X97724499Y-109951736D01*
X97718491Y-110003655D01*
X97713303Y-110083172D01*
X97709336Y-110184546D01*
X97707423Y-110270192D01*
X97702077Y-110607231D01*
X97655440Y-110613825D01*
X97613024Y-110609214D01*
X97592240Y-110594287D01*
X97586430Y-110566377D01*
X97581470Y-110506925D01*
X97577754Y-110423466D01*
X97575676Y-110323532D01*
X97575376Y-110272104D01*
X97575077Y-109976054D01*
X97513546Y-109954604D01*
X97469996Y-109940020D01*
X97446306Y-109933219D01*
X97445623Y-109933154D01*
X97443246Y-109951642D01*
X97440634Y-110002906D01*
X97438005Y-110080649D01*
X97435579Y-110178574D01*
X97433885Y-110270192D01*
X97428539Y-110607231D01*
X97311308Y-110607231D01*
X97305928Y-110299746D01*
X97300549Y-109992261D01*
X97243399Y-109962707D01*
X97201203Y-109942413D01*
X97176230Y-109933204D01*
X97175509Y-109933154D01*
X97172071Y-109951662D01*
G36*
X97965919Y-110095289D02*
G01*
X97966167Y-110241320D01*
X97967128Y-110353655D01*
X97969206Y-110437678D01*
X97972807Y-110498769D01*
X97978335Y-110542309D01*
X97986196Y-110573679D01*
X97996793Y-110598262D01*
X98004818Y-110612294D01*
X98071272Y-110688388D01*
X98155530Y-110736084D01*
X98248751Y-110753199D01*
X98342100Y-110737546D01*
X98397688Y-110709418D01*
X98456043Y-110660760D01*
X98495814Y-110601333D01*
X98519810Y-110523507D01*
X98530839Y-110419652D01*
X98532401Y-110343462D01*
X98532191Y-110337986D01*
X98395692Y-110337986D01*
X98394859Y-110425355D01*
X98391039Y-110483192D01*
X98382254Y-110521029D01*
X98366526Y-110548398D01*
X98347734Y-110569042D01*
X98284625Y-110608890D01*
X98216863Y-110612295D01*
X98152821Y-110579025D01*
X98147836Y-110574517D01*
X98126561Y-110551067D01*
X98113221Y-110523166D01*
X98105999Y-110481641D01*
X98103077Y-110417316D01*
X98102615Y-110346200D01*
X98103617Y-110256858D01*
X98107762Y-110197258D01*
X98116764Y-110158089D01*
X98132333Y-110130040D01*
X98145098Y-110115144D01*
X98204400Y-110077575D01*
X98272699Y-110073057D01*
X98337890Y-110101753D01*
X98350472Y-110112406D01*
X98371889Y-110136063D01*
X98385256Y-110164251D01*
X98392434Y-110206245D01*
X98395281Y-110271319D01*
X98395692Y-110337986D01*
X98532191Y-110337986D01*
X98527678Y-110220765D01*
X98511638Y-110128577D01*
X98481472Y-110059269D01*
X98434371Y-110005211D01*
X98397688Y-109977505D01*
X98331010Y-109947572D01*
X98253728Y-109933678D01*
X98181890Y-109937397D01*
X98141692Y-109952400D01*
X98125918Y-109956670D01*
X98115450Y-109940750D01*
X98108144Y-109898089D01*
X98102615Y-109833106D01*
X98096563Y-109760732D01*
X98088156Y-109717187D01*
X98072859Y-109692287D01*
X98046136Y-109675845D01*
X98029346Y-109668564D01*
X97965846Y-109641963D01*
X97965919Y-110095289D01*
G37*
X97965919Y-110095289D02*
X97966167Y-110241320D01*
X97967128Y-110353655D01*
X97969206Y-110437678D01*
X97972807Y-110498769D01*
X97978335Y-110542309D01*
X97986196Y-110573679D01*
X97996793Y-110598262D01*
X98004818Y-110612294D01*
X98071272Y-110688388D01*
X98155530Y-110736084D01*
X98248751Y-110753199D01*
X98342100Y-110737546D01*
X98397688Y-110709418D01*
X98456043Y-110660760D01*
X98495814Y-110601333D01*
X98519810Y-110523507D01*
X98530839Y-110419652D01*
X98532401Y-110343462D01*
X98532191Y-110337986D01*
X98395692Y-110337986D01*
X98394859Y-110425355D01*
X98391039Y-110483192D01*
X98382254Y-110521029D01*
X98366526Y-110548398D01*
X98347734Y-110569042D01*
X98284625Y-110608890D01*
X98216863Y-110612295D01*
X98152821Y-110579025D01*
X98147836Y-110574517D01*
X98126561Y-110551067D01*
X98113221Y-110523166D01*
X98105999Y-110481641D01*
X98103077Y-110417316D01*
X98102615Y-110346200D01*
X98103617Y-110256858D01*
X98107762Y-110197258D01*
X98116764Y-110158089D01*
X98132333Y-110130040D01*
X98145098Y-110115144D01*
X98204400Y-110077575D01*
X98272699Y-110073057D01*
X98337890Y-110101753D01*
X98350472Y-110112406D01*
X98371889Y-110136063D01*
X98385256Y-110164251D01*
X98392434Y-110206245D01*
X98395281Y-110271319D01*
X98395692Y-110337986D01*
X98532191Y-110337986D01*
X98527678Y-110220765D01*
X98511638Y-110128577D01*
X98481472Y-110059269D01*
X98434371Y-110005211D01*
X98397688Y-109977505D01*
X98331010Y-109947572D01*
X98253728Y-109933678D01*
X98181890Y-109937397D01*
X98141692Y-109952400D01*
X98125918Y-109956670D01*
X98115450Y-109940750D01*
X98108144Y-109898089D01*
X98102615Y-109833106D01*
X98096563Y-109760732D01*
X98088156Y-109717187D01*
X98072859Y-109692287D01*
X98046136Y-109675845D01*
X98029346Y-109668564D01*
X97965846Y-109641963D01*
X97965919Y-110095289D01*
G36*
X98854638Y-109939670D02*
G01*
X98765883Y-109972421D01*
X98693978Y-110030350D01*
X98665856Y-110071128D01*
X98635198Y-110145954D01*
X98635835Y-110200058D01*
X98668013Y-110236446D01*
X98679919Y-110242633D01*
X98731325Y-110261925D01*
X98757578Y-110256982D01*
X98766470Y-110224587D01*
X98766923Y-110206692D01*
X98783203Y-110140859D01*
X98825635Y-110094807D01*
X98884612Y-110072564D01*
X98950525Y-110078161D01*
X99004105Y-110107229D01*
X99022202Y-110123810D01*
X99035029Y-110143925D01*
X99043694Y-110174332D01*
X99049304Y-110221788D01*
X99052965Y-110293050D01*
X99055785Y-110394875D01*
X99056516Y-110427115D01*
X99059180Y-110537410D01*
X99062208Y-110615036D01*
X99066750Y-110666396D01*
X99073954Y-110697890D01*
X99084967Y-110715920D01*
X99100940Y-110726888D01*
X99111166Y-110731733D01*
X99154594Y-110748301D01*
X99180158Y-110753769D01*
X99188605Y-110735507D01*
X99193761Y-110680296D01*
X99195654Y-110587499D01*
X99194311Y-110456478D01*
X99193893Y-110436269D01*
X99190942Y-110316733D01*
X99187452Y-110229449D01*
X99182486Y-110167591D01*
X99175107Y-110124336D01*
X99164376Y-110092860D01*
X99149355Y-110066339D01*
X99141498Y-110054975D01*
X99096447Y-110004692D01*
X99046060Y-109965581D01*
X99039892Y-109962167D01*
X98949542Y-109935212D01*
X98854638Y-109939670D01*
G37*
X98854638Y-109939670D02*
X98765883Y-109972421D01*
X98693978Y-110030350D01*
X98665856Y-110071128D01*
X98635198Y-110145954D01*
X98635835Y-110200058D01*
X98668013Y-110236446D01*
X98679919Y-110242633D01*
X98731325Y-110261925D01*
X98757578Y-110256982D01*
X98766470Y-110224587D01*
X98766923Y-110206692D01*
X98783203Y-110140859D01*
X98825635Y-110094807D01*
X98884612Y-110072564D01*
X98950525Y-110078161D01*
X99004105Y-110107229D01*
X99022202Y-110123810D01*
X99035029Y-110143925D01*
X99043694Y-110174332D01*
X99049304Y-110221788D01*
X99052965Y-110293050D01*
X99055785Y-110394875D01*
X99056516Y-110427115D01*
X99059180Y-110537410D01*
X99062208Y-110615036D01*
X99066750Y-110666396D01*
X99073954Y-110697890D01*
X99084967Y-110715920D01*
X99100940Y-110726888D01*
X99111166Y-110731733D01*
X99154594Y-110748301D01*
X99180158Y-110753769D01*
X99188605Y-110735507D01*
X99193761Y-110680296D01*
X99195654Y-110587499D01*
X99194311Y-110456478D01*
X99193893Y-110436269D01*
X99190942Y-110316733D01*
X99187452Y-110229449D01*
X99182486Y-110167591D01*
X99175107Y-110124336D01*
X99164376Y-110092860D01*
X99149355Y-110066339D01*
X99141498Y-110054975D01*
X99096447Y-110004692D01*
X99046060Y-109965581D01*
X99039892Y-109962167D01*
X98949542Y-109935212D01*
X98854638Y-109939670D01*
G36*
X99514499Y-109941303D02*
G01*
X99437940Y-109969733D01*
X99437064Y-109970279D01*
X99389715Y-110005127D01*
X99354759Y-110045852D01*
X99330175Y-110098925D01*
X99313938Y-110170814D01*
X99304025Y-110267992D01*
X99298414Y-110396928D01*
X99297923Y-110415298D01*
X99290859Y-110692287D01*
X99350305Y-110723028D01*
X99393319Y-110743802D01*
X99419290Y-110753646D01*
X99420491Y-110753769D01*
X99424986Y-110735606D01*
X99428556Y-110686612D01*
X99430752Y-110615031D01*
X99431231Y-110557068D01*
X99431242Y-110463170D01*
X99435534Y-110404203D01*
X99450497Y-110376079D01*
X99482518Y-110374706D01*
X99537986Y-110395998D01*
X99621731Y-110435136D01*
X99683311Y-110467643D01*
X99714983Y-110495845D01*
X99724294Y-110526582D01*
X99724308Y-110528104D01*
X99708943Y-110581054D01*
X99663453Y-110609660D01*
X99593834Y-110613803D01*
X99543687Y-110613084D01*
X99517246Y-110627527D01*
X99500757Y-110662218D01*
X99491267Y-110706416D01*
X99504943Y-110731493D01*
X99510093Y-110735082D01*
X99558575Y-110749496D01*
X99626469Y-110751537D01*
X99696388Y-110741983D01*
X99745932Y-110724522D01*
X99814430Y-110666364D01*
X99853366Y-110585408D01*
X99861077Y-110522160D01*
X99855193Y-110465111D01*
X99833899Y-110418542D01*
X99791735Y-110377181D01*
X99723241Y-110335755D01*
X99622956Y-110288993D01*
X99616846Y-110286350D01*
X99526510Y-110244617D01*
X99470765Y-110210391D01*
X99446871Y-110179635D01*
X99452087Y-110148311D01*
X99483672Y-110112383D01*
X99493117Y-110104116D01*
X99556383Y-110072058D01*
X99621936Y-110073407D01*
X99679028Y-110104838D01*
X99716907Y-110163024D01*
X99720426Y-110174446D01*
X99754700Y-110229837D01*
X99798191Y-110256518D01*
X99861077Y-110282960D01*
X99861077Y-110214548D01*
X99841948Y-110115110D01*
X99785169Y-110023902D01*
X99755622Y-109993389D01*
X99688458Y-109954228D01*
X99603044Y-109936500D01*
X99514499Y-109941303D01*
G37*
X99514499Y-109941303D02*
X99437940Y-109969733D01*
X99437064Y-109970279D01*
X99389715Y-110005127D01*
X99354759Y-110045852D01*
X99330175Y-110098925D01*
X99313938Y-110170814D01*
X99304025Y-110267992D01*
X99298414Y-110396928D01*
X99297923Y-110415298D01*
X99290859Y-110692287D01*
X99350305Y-110723028D01*
X99393319Y-110743802D01*
X99419290Y-110753646D01*
X99420491Y-110753769D01*
X99424986Y-110735606D01*
X99428556Y-110686612D01*
X99430752Y-110615031D01*
X99431231Y-110557068D01*
X99431242Y-110463170D01*
X99435534Y-110404203D01*
X99450497Y-110376079D01*
X99482518Y-110374706D01*
X99537986Y-110395998D01*
X99621731Y-110435136D01*
X99683311Y-110467643D01*
X99714983Y-110495845D01*
X99724294Y-110526582D01*
X99724308Y-110528104D01*
X99708943Y-110581054D01*
X99663453Y-110609660D01*
X99593834Y-110613803D01*
X99543687Y-110613084D01*
X99517246Y-110627527D01*
X99500757Y-110662218D01*
X99491267Y-110706416D01*
X99504943Y-110731493D01*
X99510093Y-110735082D01*
X99558575Y-110749496D01*
X99626469Y-110751537D01*
X99696388Y-110741983D01*
X99745932Y-110724522D01*
X99814430Y-110666364D01*
X99853366Y-110585408D01*
X99861077Y-110522160D01*
X99855193Y-110465111D01*
X99833899Y-110418542D01*
X99791735Y-110377181D01*
X99723241Y-110335755D01*
X99622956Y-110288993D01*
X99616846Y-110286350D01*
X99526510Y-110244617D01*
X99470765Y-110210391D01*
X99446871Y-110179635D01*
X99452087Y-110148311D01*
X99483672Y-110112383D01*
X99493117Y-110104116D01*
X99556383Y-110072058D01*
X99621936Y-110073407D01*
X99679028Y-110104838D01*
X99716907Y-110163024D01*
X99720426Y-110174446D01*
X99754700Y-110229837D01*
X99798191Y-110256518D01*
X99861077Y-110282960D01*
X99861077Y-110214548D01*
X99841948Y-110115110D01*
X99785169Y-110023902D01*
X99755622Y-109993389D01*
X99688458Y-109954228D01*
X99603044Y-109936500D01*
X99514499Y-109941303D01*
G36*
X100408154Y-109807120D02*
G01*
X100402428Y-109886980D01*
X100395851Y-109934039D01*
X100386738Y-109954566D01*
X100373402Y-109954829D01*
X100369077Y-109952378D01*
X100311556Y-109934636D01*
X100236732Y-109935672D01*
X100160661Y-109953910D01*
X100113082Y-109977505D01*
X100064298Y-110015198D01*
X100028636Y-110057855D01*
X100004155Y-110112057D01*
X99988913Y-110184384D01*
X99980970Y-110281419D01*
X99978384Y-110409742D01*
X99978338Y-110434358D01*
X99978308Y-110710870D01*
X100039839Y-110732320D01*
X100083541Y-110746912D01*
X100107518Y-110753706D01*
X100108223Y-110753769D01*
X100110585Y-110735345D01*
X100112594Y-110684526D01*
X100114099Y-110607993D01*
X100114947Y-110512430D01*
X100115077Y-110454329D01*
X100115349Y-110339771D01*
X100116748Y-110257667D01*
X100120151Y-110201393D01*
X100126433Y-110164326D01*
X100136471Y-110139844D01*
X100151139Y-110121325D01*
X100160298Y-110112406D01*
X100223211Y-110076466D01*
X100291864Y-110073775D01*
X100354152Y-110104170D01*
X100365671Y-110115144D01*
X100382567Y-110135779D01*
X100394286Y-110160256D01*
X100401767Y-110195647D01*
X100405946Y-110249026D01*
X100407763Y-110327466D01*
X100408154Y-110435617D01*
X100408154Y-110710870D01*
X100469685Y-110732320D01*
X100513387Y-110746912D01*
X100537364Y-110753706D01*
X100538070Y-110753769D01*
X100539874Y-110735069D01*
X100541500Y-110682322D01*
X100542883Y-110600557D01*
X100543958Y-110494805D01*
X100544660Y-110370094D01*
X100544923Y-110231455D01*
X100544923Y-109696806D01*
X100417923Y-109643236D01*
X100408154Y-109807120D01*
G37*
X100408154Y-109807120D02*
X100402428Y-109886980D01*
X100395851Y-109934039D01*
X100386738Y-109954566D01*
X100373402Y-109954829D01*
X100369077Y-109952378D01*
X100311556Y-109934636D01*
X100236732Y-109935672D01*
X100160661Y-109953910D01*
X100113082Y-109977505D01*
X100064298Y-110015198D01*
X100028636Y-110057855D01*
X100004155Y-110112057D01*
X99988913Y-110184384D01*
X99980970Y-110281419D01*
X99978384Y-110409742D01*
X99978338Y-110434358D01*
X99978308Y-110710870D01*
X100039839Y-110732320D01*
X100083541Y-110746912D01*
X100107518Y-110753706D01*
X100108223Y-110753769D01*
X100110585Y-110735345D01*
X100112594Y-110684526D01*
X100114099Y-110607993D01*
X100114947Y-110512430D01*
X100115077Y-110454329D01*
X100115349Y-110339771D01*
X100116748Y-110257667D01*
X100120151Y-110201393D01*
X100126433Y-110164326D01*
X100136471Y-110139844D01*
X100151139Y-110121325D01*
X100160298Y-110112406D01*
X100223211Y-110076466D01*
X100291864Y-110073775D01*
X100354152Y-110104170D01*
X100365671Y-110115144D01*
X100382567Y-110135779D01*
X100394286Y-110160256D01*
X100401767Y-110195647D01*
X100405946Y-110249026D01*
X100407763Y-110327466D01*
X100408154Y-110435617D01*
X100408154Y-110710870D01*
X100469685Y-110732320D01*
X100513387Y-110746912D01*
X100537364Y-110753706D01*
X100538070Y-110753769D01*
X100539874Y-110735069D01*
X100541500Y-110682322D01*
X100542883Y-110600557D01*
X100543958Y-110494805D01*
X100544660Y-110370094D01*
X100544923Y-110231455D01*
X100544923Y-109696806D01*
X100417923Y-109643236D01*
X100408154Y-109807120D01*
G36*
X102033746Y-109914745D02*
G01*
X101956714Y-109966567D01*
X101897184Y-110041412D01*
X101861622Y-110136654D01*
X101854429Y-110206756D01*
X101855246Y-110236009D01*
X101862086Y-110258407D01*
X101880888Y-110278474D01*
X101917592Y-110300733D01*
X101978138Y-110329709D01*
X102068466Y-110369927D01*
X102068923Y-110370129D01*
X102152067Y-110408210D01*
X102220247Y-110442025D01*
X102266495Y-110467933D01*
X102283842Y-110482295D01*
X102283846Y-110482411D01*
X102268557Y-110513685D01*
X102232804Y-110548157D01*
X102191758Y-110572990D01*
X102170963Y-110577923D01*
X102114230Y-110560862D01*
X102065373Y-110518133D01*
X102041535Y-110471155D01*
X102018603Y-110436522D01*
X101973682Y-110397081D01*
X101920877Y-110363009D01*
X101874290Y-110344480D01*
X101864548Y-110343462D01*
X101853582Y-110360215D01*
X101852921Y-110403039D01*
X101860980Y-110460781D01*
X101876173Y-110522289D01*
X101896914Y-110576409D01*
X101897962Y-110578510D01*
X101960379Y-110665660D01*
X102041274Y-110724939D01*
X102133144Y-110754034D01*
X102228487Y-110750634D01*
X102319802Y-110712428D01*
X102323862Y-110709741D01*
X102395694Y-110644642D01*
X102442927Y-110559705D01*
X102469066Y-110448021D01*
X102472574Y-110416643D01*
X102478787Y-110268536D01*
X102471339Y-110199468D01*
X102283846Y-110199468D01*
X102281410Y-110242552D01*
X102268086Y-110255126D01*
X102234868Y-110245719D01*
X102182506Y-110223483D01*
X102123976Y-110195610D01*
X102122521Y-110194872D01*
X102072911Y-110168777D01*
X102053000Y-110151363D01*
X102057910Y-110133107D01*
X102078584Y-110109120D01*
X102131181Y-110074406D01*
X102187823Y-110071856D01*
X102238631Y-110097119D01*
X102273724Y-110145847D01*
X102283846Y-110199468D01*
X102471339Y-110199468D01*
X102466008Y-110150036D01*
X102433222Y-110056055D01*
X102387579Y-109990215D01*
X102305198Y-109923681D01*
X102214454Y-109890676D01*
X102121815Y-109888573D01*
X102033746Y-109914745D01*
G37*
X102033746Y-109914745D02*
X101956714Y-109966567D01*
X101897184Y-110041412D01*
X101861622Y-110136654D01*
X101854429Y-110206756D01*
X101855246Y-110236009D01*
X101862086Y-110258407D01*
X101880888Y-110278474D01*
X101917592Y-110300733D01*
X101978138Y-110329709D01*
X102068466Y-110369927D01*
X102068923Y-110370129D01*
X102152067Y-110408210D01*
X102220247Y-110442025D01*
X102266495Y-110467933D01*
X102283842Y-110482295D01*
X102283846Y-110482411D01*
X102268557Y-110513685D01*
X102232804Y-110548157D01*
X102191758Y-110572990D01*
X102170963Y-110577923D01*
X102114230Y-110560862D01*
X102065373Y-110518133D01*
X102041535Y-110471155D01*
X102018603Y-110436522D01*
X101973682Y-110397081D01*
X101920877Y-110363009D01*
X101874290Y-110344480D01*
X101864548Y-110343462D01*
X101853582Y-110360215D01*
X101852921Y-110403039D01*
X101860980Y-110460781D01*
X101876173Y-110522289D01*
X101896914Y-110576409D01*
X101897962Y-110578510D01*
X101960379Y-110665660D01*
X102041274Y-110724939D01*
X102133144Y-110754034D01*
X102228487Y-110750634D01*
X102319802Y-110712428D01*
X102323862Y-110709741D01*
X102395694Y-110644642D01*
X102442927Y-110559705D01*
X102469066Y-110448021D01*
X102472574Y-110416643D01*
X102478787Y-110268536D01*
X102471339Y-110199468D01*
X102283846Y-110199468D01*
X102281410Y-110242552D01*
X102268086Y-110255126D01*
X102234868Y-110245719D01*
X102182506Y-110223483D01*
X102123976Y-110195610D01*
X102122521Y-110194872D01*
X102072911Y-110168777D01*
X102053000Y-110151363D01*
X102057910Y-110133107D01*
X102078584Y-110109120D01*
X102131181Y-110074406D01*
X102187823Y-110071856D01*
X102238631Y-110097119D01*
X102273724Y-110145847D01*
X102283846Y-110199468D01*
X102471339Y-110199468D01*
X102466008Y-110150036D01*
X102433222Y-110056055D01*
X102387579Y-109990215D01*
X102305198Y-109923681D01*
X102214454Y-109890676D01*
X102121815Y-109888573D01*
X102033746Y-109914745D01*
G36*
X103551114Y-109902256D02*
G01*
X103459536Y-109950409D01*
X103391951Y-110027905D01*
X103367943Y-110077727D01*
X103349262Y-110152533D01*
X103339699Y-110247052D01*
X103338792Y-110350210D01*
X103346079Y-110450935D01*
X103361097Y-110538153D01*
X103383385Y-110600791D01*
X103390235Y-110611579D01*
X103471368Y-110692105D01*
X103567734Y-110740336D01*
X103672299Y-110754450D01*
X103778032Y-110732629D01*
X103807457Y-110719547D01*
X103864759Y-110679231D01*
X103915050Y-110625775D01*
X103919803Y-110618995D01*
X103939122Y-110586321D01*
X103951892Y-110551394D01*
X103959436Y-110505414D01*
X103963076Y-110439584D01*
X103964135Y-110345105D01*
X103964154Y-110323923D01*
X103964106Y-110317182D01*
X103768769Y-110317182D01*
X103767632Y-110406349D01*
X103763159Y-110465520D01*
X103753754Y-110503741D01*
X103737824Y-110530053D01*
X103729692Y-110538846D01*
X103682942Y-110572261D01*
X103637553Y-110570737D01*
X103591660Y-110541752D01*
X103564288Y-110510809D01*
X103548077Y-110465643D01*
X103538974Y-110394420D01*
X103538349Y-110386114D01*
X103536796Y-110257037D01*
X103553035Y-110161172D01*
X103586848Y-110099107D01*
X103638016Y-110071432D01*
X103656280Y-110069923D01*
X103704240Y-110077513D01*
X103737047Y-110103808D01*
X103757105Y-110154095D01*
X103766822Y-110233664D01*
X103768769Y-110317182D01*
X103964106Y-110317182D01*
X103963426Y-110223249D01*
X103960371Y-110152906D01*
X103953678Y-110104163D01*
X103942040Y-110068288D01*
X103924147Y-110036548D01*
X103920192Y-110030648D01*
X103853733Y-109951104D01*
X103781315Y-109904929D01*
X103693151Y-109886599D01*
X103663213Y-109885703D01*
X103551114Y-109902256D01*
G37*
X103551114Y-109902256D02*
X103459536Y-109950409D01*
X103391951Y-110027905D01*
X103367943Y-110077727D01*
X103349262Y-110152533D01*
X103339699Y-110247052D01*
X103338792Y-110350210D01*
X103346079Y-110450935D01*
X103361097Y-110538153D01*
X103383385Y-110600791D01*
X103390235Y-110611579D01*
X103471368Y-110692105D01*
X103567734Y-110740336D01*
X103672299Y-110754450D01*
X103778032Y-110732629D01*
X103807457Y-110719547D01*
X103864759Y-110679231D01*
X103915050Y-110625775D01*
X103919803Y-110618995D01*
X103939122Y-110586321D01*
X103951892Y-110551394D01*
X103959436Y-110505414D01*
X103963076Y-110439584D01*
X103964135Y-110345105D01*
X103964154Y-110323923D01*
X103964106Y-110317182D01*
X103768769Y-110317182D01*
X103767632Y-110406349D01*
X103763159Y-110465520D01*
X103753754Y-110503741D01*
X103737824Y-110530053D01*
X103729692Y-110538846D01*
X103682942Y-110572261D01*
X103637553Y-110570737D01*
X103591660Y-110541752D01*
X103564288Y-110510809D01*
X103548077Y-110465643D01*
X103538974Y-110394420D01*
X103538349Y-110386114D01*
X103536796Y-110257037D01*
X103553035Y-110161172D01*
X103586848Y-110099107D01*
X103638016Y-110071432D01*
X103656280Y-110069923D01*
X103704240Y-110077513D01*
X103737047Y-110103808D01*
X103757105Y-110154095D01*
X103766822Y-110233664D01*
X103768769Y-110317182D01*
X103964106Y-110317182D01*
X103963426Y-110223249D01*
X103960371Y-110152906D01*
X103953678Y-110104163D01*
X103942040Y-110068288D01*
X103924147Y-110036548D01*
X103920192Y-110030648D01*
X103853733Y-109951104D01*
X103781315Y-109904929D01*
X103693151Y-109886599D01*
X103663213Y-109885703D01*
X103551114Y-109902256D01*
G36*
X101296336Y-109910089D02*
G01*
X101233633Y-109946358D01*
X101190039Y-109982358D01*
X101158155Y-110020075D01*
X101136190Y-110066199D01*
X101122351Y-110127421D01*
X101114847Y-110210431D01*
X101111883Y-110321919D01*
X101111539Y-110402062D01*
X101111539Y-110697065D01*
X101277615Y-110771515D01*
X101287385Y-110448402D01*
X101291421Y-110327729D01*
X101295656Y-110240141D01*
X101300903Y-110179650D01*
X101307975Y-110140268D01*
X101317689Y-110116007D01*
X101330856Y-110100880D01*
X101335081Y-110097606D01*
X101399091Y-110072034D01*
X101463792Y-110082153D01*
X101502308Y-110109000D01*
X101517975Y-110128024D01*
X101528820Y-110152988D01*
X101535712Y-110190834D01*
X101539521Y-110248502D01*
X101541117Y-110332935D01*
X101541385Y-110420928D01*
X101541437Y-110531323D01*
X101543328Y-110609463D01*
X101549655Y-110662165D01*
X101563017Y-110696242D01*
X101586015Y-110718511D01*
X101621246Y-110735787D01*
X101668303Y-110753738D01*
X101719697Y-110773278D01*
X101713579Y-110426485D01*
X101711116Y-110301468D01*
X101708233Y-110209082D01*
X101704102Y-110142881D01*
X101697893Y-110096420D01*
X101688774Y-110063256D01*
X101675917Y-110036944D01*
X101660416Y-110013729D01*
X101585629Y-109939569D01*
X101494372Y-109896684D01*
X101395117Y-109886412D01*
X101296336Y-109910089D01*
G37*
X101296336Y-109910089D02*
X101233633Y-109946358D01*
X101190039Y-109982358D01*
X101158155Y-110020075D01*
X101136190Y-110066199D01*
X101122351Y-110127421D01*
X101114847Y-110210431D01*
X101111883Y-110321919D01*
X101111539Y-110402062D01*
X101111539Y-110697065D01*
X101277615Y-110771515D01*
X101287385Y-110448402D01*
X101291421Y-110327729D01*
X101295656Y-110240141D01*
X101300903Y-110179650D01*
X101307975Y-110140268D01*
X101317689Y-110116007D01*
X101330856Y-110100880D01*
X101335081Y-110097606D01*
X101399091Y-110072034D01*
X101463792Y-110082153D01*
X101502308Y-110109000D01*
X101517975Y-110128024D01*
X101528820Y-110152988D01*
X101535712Y-110190834D01*
X101539521Y-110248502D01*
X101541117Y-110332935D01*
X101541385Y-110420928D01*
X101541437Y-110531323D01*
X101543328Y-110609463D01*
X101549655Y-110662165D01*
X101563017Y-110696242D01*
X101586015Y-110718511D01*
X101621246Y-110735787D01*
X101668303Y-110753738D01*
X101719697Y-110773278D01*
X101713579Y-110426485D01*
X101711116Y-110301468D01*
X101708233Y-110209082D01*
X101704102Y-110142881D01*
X101697893Y-110096420D01*
X101688774Y-110063256D01*
X101675917Y-110036944D01*
X101660416Y-110013729D01*
X101585629Y-109939569D01*
X101494372Y-109896684D01*
X101395117Y-109886412D01*
X101296336Y-109910089D01*
G36*
X102799114Y-109899505D02*
G01*
X102724461Y-109936727D01*
X102658569Y-110005261D01*
X102640423Y-110030648D01*
X102620655Y-110063866D01*
X102607828Y-110099945D01*
X102600490Y-110148098D01*
X102597187Y-110217536D01*
X102596462Y-110309206D01*
X102599737Y-110434830D01*
X102611123Y-110529154D01*
X102632959Y-110599523D01*
X102667581Y-110653286D01*
X102717330Y-110697788D01*
X102720986Y-110700423D01*
X102770015Y-110727377D01*
X102829055Y-110740712D01*
X102904141Y-110744000D01*
X103026205Y-110744000D01*
X103026256Y-110862497D01*
X103027392Y-110928492D01*
X103034314Y-110967202D01*
X103052402Y-110990419D01*
X103087038Y-111009933D01*
X103095355Y-111013920D01*
X103134280Y-111032603D01*
X103164417Y-111044403D01*
X103186826Y-111045422D01*
X103202567Y-111031761D01*
X103212698Y-110999522D01*
X103218277Y-110944804D01*
X103220365Y-110863711D01*
X103220019Y-110752344D01*
X103218300Y-110606802D01*
X103217763Y-110563269D01*
X103215828Y-110413205D01*
X103214096Y-110315042D01*
X103026308Y-110315042D01*
X103025252Y-110398364D01*
X103020562Y-110452880D01*
X103009949Y-110488837D01*
X102991128Y-110516482D01*
X102978350Y-110529965D01*
X102926110Y-110569417D01*
X102879858Y-110572628D01*
X102832133Y-110540049D01*
X102830923Y-110538846D01*
X102811506Y-110513668D01*
X102799693Y-110479447D01*
X102793735Y-110426748D01*
X102791880Y-110346131D01*
X102791846Y-110328271D01*
X102796330Y-110217175D01*
X102810926Y-110140161D01*
X102837350Y-110093147D01*
X102877317Y-110072050D01*
X102900416Y-110069923D01*
X102955238Y-110079900D01*
X102992842Y-110112752D01*
X103015477Y-110172857D01*
X103025394Y-110264598D01*
X103026308Y-110315042D01*
X103214096Y-110315042D01*
X103213778Y-110297060D01*
X103211127Y-110209679D01*
X103207394Y-110145905D01*
X103202093Y-110100582D01*
X103194742Y-110068555D01*
X103184857Y-110044668D01*
X103171954Y-110023764D01*
X103166421Y-110015898D01*
X103093031Y-109941595D01*
X103000240Y-109899467D01*
X102892904Y-109887722D01*
X102799114Y-109899505D01*
G37*
X102799114Y-109899505D02*
X102724461Y-109936727D01*
X102658569Y-110005261D01*
X102640423Y-110030648D01*
X102620655Y-110063866D01*
X102607828Y-110099945D01*
X102600490Y-110148098D01*
X102597187Y-110217536D01*
X102596462Y-110309206D01*
X102599737Y-110434830D01*
X102611123Y-110529154D01*
X102632959Y-110599523D01*
X102667581Y-110653286D01*
X102717330Y-110697788D01*
X102720986Y-110700423D01*
X102770015Y-110727377D01*
X102829055Y-110740712D01*
X102904141Y-110744000D01*
X103026205Y-110744000D01*
X103026256Y-110862497D01*
X103027392Y-110928492D01*
X103034314Y-110967202D01*
X103052402Y-110990419D01*
X103087038Y-111009933D01*
X103095355Y-111013920D01*
X103134280Y-111032603D01*
X103164417Y-111044403D01*
X103186826Y-111045422D01*
X103202567Y-111031761D01*
X103212698Y-110999522D01*
X103218277Y-110944804D01*
X103220365Y-110863711D01*
X103220019Y-110752344D01*
X103218300Y-110606802D01*
X103217763Y-110563269D01*
X103215828Y-110413205D01*
X103214096Y-110315042D01*
X103026308Y-110315042D01*
X103025252Y-110398364D01*
X103020562Y-110452880D01*
X103009949Y-110488837D01*
X102991128Y-110516482D01*
X102978350Y-110529965D01*
X102926110Y-110569417D01*
X102879858Y-110572628D01*
X102832133Y-110540049D01*
X102830923Y-110538846D01*
X102811506Y-110513668D01*
X102799693Y-110479447D01*
X102793735Y-110426748D01*
X102791880Y-110346131D01*
X102791846Y-110328271D01*
X102796330Y-110217175D01*
X102810926Y-110140161D01*
X102837350Y-110093147D01*
X102877317Y-110072050D01*
X102900416Y-110069923D01*
X102955238Y-110079900D01*
X102992842Y-110112752D01*
X103015477Y-110172857D01*
X103025394Y-110264598D01*
X103026308Y-110315042D01*
X103214096Y-110315042D01*
X103213778Y-110297060D01*
X103211127Y-110209679D01*
X103207394Y-110145905D01*
X103202093Y-110100582D01*
X103194742Y-110068555D01*
X103184857Y-110044668D01*
X103171954Y-110023764D01*
X103166421Y-110015898D01*
X103093031Y-109941595D01*
X103000240Y-109899467D01*
X102892904Y-109887722D01*
X102799114Y-109899505D01*
%TD*%
M02*
